<?xml version="1.0" standalone="no"?><!DOCTYPE svg PUBLIC "-//W3C//DTD SVG 1.1//EN" "http://www.w3.org/Graphics/SVG/1.1/DTD/svg11.dtd"><svg t="1678605437795" class="icon" viewBox="0 0 1024 1024" version="1.1" xmlns="http://www.w3.org/2000/svg" p-id="19270" xmlns:xlink="http://www.w3.org/1999/xlink" width="200" height="200"><path d="M777.7 64.5H246.3c-30.9 0-55.9 25-55.9 55.9v783.1c0 30.9 25 55.9 55.9 55.9h531.4c30.9 0 55.9-25 55.9-55.9V120.4c0-30.9-25-55.9-55.9-55.9z m-370.6 42h209.8c11.6 0 21 9.4 21 21s-9.4 21-21 21H407.1c-11.6 0-21-9.4-21-21s9.4-21 21-21z m104.9 811c-30.9 0-55.9-25-55.9-55.9s25-55.9 55.9-55.9 55.9 25 55.9 55.9-25 55.9-55.9 55.9z m254.4-153.8H257.6V190.4h508.9v573.3z" p-id="19271"></path><path d="M616.6 410.6l-94.4 153.8L412.7 503 283.2 735.8h457.6z" p-id="19272"></path><path d="M687.4 316.4m-53.4 0a53.4 53.4 0 1 0 106.8 0 53.4 53.4 0 1 0-106.8 0Z" p-id="19273"></path></svg>