<?xml version="1.0" standalone="no"?><!DOCTYPE svg PUBLIC "-//W3C//DTD SVG 1.1//EN" "http://www.w3.org/Graphics/SVG/1.1/DTD/svg11.dtd"><svg t="1678607565105" class="icon" viewBox="0 0 1024 1024" version="1.1" xmlns="http://www.w3.org/2000/svg" p-id="25852" xmlns:xlink="http://www.w3.org/1999/xlink" width="200" height="200"><path d="M494.933333 887.466667c-3.413333 0-10.24 0-13.653333-3.413334l-341.333333-341.333333c-6.826667-6.826667-6.826667-17.066667 0-23.893333s17.066667-6.826667 23.893333 0l331.093333 331.093333 211.626667-160.426667c3.413333-6.826667 6.826667-6.826667 10.24-6.826666h85.333333c61.44 0 153.6-61.44 153.6-197.973334 0-129.706667-47.786667-252.586667-133.12-337.92C750.933333 78.506667 621.226667 34.133333 471.04 34.133333 334.506667 34.133333 273.066667 126.293333 273.066667 187.733333V273.066667c0 3.413333 0 6.826667-3.413334 10.24l-204.8 221.866666c-6.826667 6.826667-17.066667 6.826667-23.893333 0-6.826667-6.826667-6.826667-17.066667 0-23.893333L238.933333 266.24V187.733333C238.933333 112.64 310.613333 0 471.04 0c160.426667 0 300.373333 44.373333 378.88 122.88 88.746667 88.746667 139.946667 221.866667 139.946667 361.813333 0 157.013333-112.64 232.106667-187.733334 232.106667h-78.506666l-218.453334 167.253333c-3.413333 3.413333-6.826667 3.413333-10.24 3.413334z" fill="" p-id="25853"></path><path d="M529.066667 187.733333m-17.066667 0a17.066667 17.066667 0 1 0 34.133333 0 17.066667 17.066667 0 1 0-34.133333 0Z" fill="" p-id="25854"></path><path d="M426.666667 324.266667m-17.066667 0a17.066667 17.066667 0 1 0 34.133333 0 17.066667 17.066667 0 1 0-34.133333 0Z" fill="" p-id="25855"></path><path d="M597.333333 358.4m-17.066666 0a17.066667 17.066667 0 1 0 34.133333 0 17.066667 17.066667 0 1 0-34.133333 0Z" fill="" p-id="25856"></path><path d="M494.933333 1024c-3.413333 0-10.24 0-13.653333-3.413333l-443.733333-443.733334c0-3.413333-3.413333-10.24-3.413334-13.653333v-68.266667c0-10.24 6.826667-17.066667 17.066667-17.066666s17.066667 6.826667 17.066667 17.066666v61.44l426.666666 426.666667 232.106667-194.56c3.413333-3.413333 6.826667-3.413333 10.24-3.413333 109.226667 0 218.453333-17.066667 218.453333-153.6l30.72-122.88c-6.826667 13.653333-30.72 10.24-30.72-6.826667 0-10.24 6.826667-17.066667 17.066667-17.066667s17.066667 6.826667 17.066667 17.066667v129.706667c0 180.906667-174.08 187.733333-245.76 187.733333l-238.933334 201.386667c-3.413333 3.413333-6.826667 3.413333-10.24 3.413333z" fill="" p-id="25857"></path></svg>