<?xml version="1.0" standalone="no"?><!DOCTYPE svg PUBLIC "-//W3C//DTD SVG 1.1//EN" "http://www.w3.org/Graphics/SVG/1.1/DTD/svg11.dtd"><svg t="1686219626078" class="icon" viewBox="0 0 1024 1024" version="1.1" xmlns="http://www.w3.org/2000/svg" p-id="1162" xmlns:xlink="http://www.w3.org/1999/xlink" width="200" height="200"><path d="M515.6 969.9C276.1 969.9 81.2 775 81.2 535.5c0-159.4 87.1-305.7 227.2-381.9 14.7-8 33.3-2.6 41.3 12.2 8 14.8 2.6 33.3-12.2 41.3C217 272.6 142.1 398.5 142.1 535.5c0 205.9 167.5 373.5 373.5 373.5S889 741.5 889 535.5c0-142.3-82.8-274.3-211-336.4-15.1-7.3-21.5-25.5-14.2-40.7 7.3-15.1 25.5-21.5 40.7-14.1 149 72.1 245.4 225.7 245.4 391.2 0 239.5-194.8 434.4-434.3 434.4z" p-id="1163" fill="currentColor"></path><path d="M515.6 492.5c-16.8 0-30.4-13.6-30.4-30.4V94.9c0-16.8 13.6-30.4 30.4-30.4 16.8 0 30.4 13.6 30.4 30.4v367.2c0 16.8-13.6 30.4-30.4 30.4z" p-id="1164" fill="currentColor"></path></svg>