<svg xmlns="http://www.w3.org/2000/svg" xmlns:xlink="http://www.w3.org/1999/xlink" fill="none" version="1.1" width="28" height="28" viewBox="0 0 28 28"><defs><clipPath id="master_svg0_37_3858"><rect x="0" y="0" width="28" height="28" rx="0"/></clipPath></defs><g clip-path="url(#master_svg0_37_3858)"><g><path d="M0,0L28,0L28,28L0,28L0,0Z" fill="#FFFFFF" fill-opacity="1"/></g><g><path d="M9.247985800781251,8.836001767578125C8.82406880078125,8.543841767578126,8.51173580078125,8.116581767578126,8.36198280078125,7.624001767578125C8.07163390078125,6.715901767578125,8.08074800078125,5.7385317675781256,8.38798280078125,4.836001767578125C8.55539280078125,4.287441767578125,8.86362980078125,3.792331767578125,9.28198580078125,3.400003767578125C9.67660580078125,3.012106767578125,10.20290580078125,2.787161267578125,10.75598580078125,2.770004272578125Q11.79998580078125,2.748004367578125,12.38398580078125,3.820001767578125C12.884155800781251,4.728181767578125,13.08502580078125,5.771021767578125,12.95798580078125,6.800001767578125C12.853985800781249,7.740001767578125,12.55798580078125,8.460001767578124,12.06398580078125,8.960001767578124Q10.98598580078125,10.056001767578124,9.247985800781251,8.836001767578125Z" fill="#0000FD" fill-opacity="1"/></g><g transform="matrix(0.9998766183853149,-0.015707317739725113,0.015707317739725113,0.9998766183853149,-0.04246521590482644,0.23454178440329088)"><ellipse cx="17.359851121902466" cy="6.1806480884552" rx="2.450000047683716" ry="3.359999895095825" fill="#0000FD" fill-opacity="1"/></g><g transform="matrix(0.9989705681800842,-0.045362986624240875,0.045362986624240875,0.9989705681800842,-0.3820019572988258,0.15402344967219506)"><ellipse cx="5.6786065101623535" cy="11.671683073043823" rx="2.4760003089904785" ry="3.1780002117156982" fill="#0000FD" fill-opacity="1"/></g><g><path d="M23.4140172265625,8.78400344921875Q25.3880172265625,10.61000544921875,24.5040172265625,12.850005449218749C24.2000172265625,13.600005449218749,23.7840172265625,14.11400544921875,23.2260172265625,14.40000544921875Q22.2520172265625,14.910005449218751,21.0100172265625,14.43200544921875C20.6149322265625,14.28939544921875,20.3035522265625,13.97874544921875,20.1600142265625,13.58400544921875C19.7446289265625,12.53107544921875,19.6987962265625,11.36836544921875,20.0300142265625,10.28600544921875Q20.5120152265625,8.64200544921875,22.0680172265625,8.33000564921875Q22.7740172265625,8.20000344921875,23.4140172265625,8.78400344921875Z" fill="#0000FD" fill-opacity="1"/></g><g><path d="M16.00001708984375,12.503999301757812Q14.62601708984375,11.583999601757812,13.23201708984375,11.847999301757813C13.01822308984375,11.903472301757812,12.79380908984375,11.903472301757812,12.58001708984375,11.847999301757813Q14.53601708984375,10.923999301757812,16.00001708984375,12.503999301757812Z" fill="#0202AC" fill-opacity="1"/></g><g><path d="M16.000018750000002,12.504003793945312C17.98101875,14.109298793945312,19.82101875,15.881088793945313,21.50001875,17.800008793945313Q22.17201875,18.555998793945314,22.62201875,19.153998793945313C22.98561875,19.611978793945312,23.24681875,20.142558793945312,23.38801875,20.70999879394531Q23.78801875,22.510038793945313,22.55401875,24.00203879394531C22.24941875,24.366238793945314,21.85311875,24.642438793945313,21.40601875,24.802038793945314C20.97121875,24.93803879394531,20.51951875,25.01273879394531,20.064018750000002,25.024038793945312C16.00981875,25.273138793945314,11.94418875,25.273138793945314,7.89000875,25.024038793945312C7.28318875,24.99993879394531,6.69340875,24.816438793945313,6.18000875,24.492038793945312C5.69376875,24.169938793945313,5.30394375,23.722038793945313,5.05201075,23.196038793945313C4.70981175,22.514838793945312,4.54668765,21.757678793945313,4.57801132,20.99599879394531C4.59261855,20.28422879394531,4.85987475,19.60084879394531,5.33201175,19.067998793945314C7.579208749999999,16.495608793945312,10.00308875,14.083088793945313,12.58600875,11.848004193945313C12.79979875,11.903477793945312,13.02421875,11.903477793945312,13.23800875,11.848004193945313Q14.63001875,11.584003793945312,16.000018750000002,12.504003793945312ZM11.73600875,16.05399879394531C11.69200875,16.409998793945313,11.66200875,16.761998793945313,11.648008749999999,17.109998793945312C11.667618749999999,17.371858793945314,11.462578749999999,17.59612879394531,11.20000875,17.59999879394531C10.90800875,17.63200879394531,10.618008750000001,17.658008793945314,10.32600875,17.682008793945315C10.03484875,17.69965879394531,9.74612875,17.745878793945312,9.46400875,17.820008793945313Q7.224008749999999,18.480008793945313,7.50000875,20.95800879394531C7.55291875,21.762818793945314,7.97054875,22.499338793945313,8.63400875,22.958038793945313Q9.31200875,23.426038793945313,10.66800875,23.57203879394531C11.54688875,23.66963879394531,12.43337875,23.67843879394531,13.31400875,23.598038793945314C13.37192875,23.59283879394531,13.41623875,23.544138793945315,13.41600875,23.486038793945312Q13.41600875,20.456008793945312,13.40400875,17.440008793945314C13.40308875,16.945398793945312,13.36699875,16.451488793945312,13.29600875,15.962008793945312C13.27267875,15.706558793945312,13.16174875,15.467028793945312,12.98200875,15.284008793945313C12.69000875,15.014008793945312,12.40200875,15.000008793945312,12.11400875,15.246008793945313C11.89245875,15.459348793945313,11.75778875,15.747208793945312,11.73600875,16.05399879394531ZM17.40601875,21.854038793945314C16.932018749999997,21.82803879394531,16.59401875,21.678008793945313,16.39201875,21.40799879394531C16.28001875,21.263998793945312,16.20201875,20.941998793945313,16.15401875,20.445998793945314C16.077918750000002,19.64212879394531,15.94421875,18.844748793945314,15.75401875,18.05999879394531C15.73781875,17.986538793945314,15.69681875,17.920868793945314,15.63801875,17.87399879394531C15.32371875,17.592878793945314,14.84831875,17.592878793945314,14.53400875,17.87399879394531C14.47558875,17.91820879394531,14.43680875,17.983548793945314,14.42600875,18.055998793945314C14.19999875,19.258528793945313,14.20406875,20.49299879394531,14.43800875,21.694008793945315Q14.78801875,23.494038793945315,16.65001875,23.580038793945313Q18.05001875,23.650038793945313,19.66601875,23.614038793945312C19.76081875,23.610738793945313,19.83601875,23.532938793945313,19.83601875,23.43803879394531Q19.83601875,21.096008793945312,19.746018749999998,18.930008793945312C19.75091875,18.60496879394531,19.68251875,18.283018793945313,19.54601875,17.988008793945312Q19.16001875,17.298008793945314,18.34601875,17.930008793945312C18.28641875,17.973818793945313,18.24971875,18.042118793945313,18.246018749999998,18.116008793945312L18.02201875,21.294008793945313C18.000018750000002,21.694008793945315,17.78801875,21.878038793945315,17.40001875,21.854038793945314L17.40601875,21.854038793945314Z" fill="#0000FD" fill-opacity="1"/></g><g><path d="M12.1060258203125,15.228001033203125C12.3940258203125,14.982000733203124,12.6820258203125,14.996000633203124,12.9740258203125,15.266002033203126C13.1537658203125,15.449020033203125,13.2646958203125,15.688550033203125,13.2880258203125,15.944002033203125C13.360355820312499,16.433389033203124,13.3977758203125,16.927299033203123,13.4000258203125,17.421999033203125Q13.4120258203125,20.437999033203127,13.4120258203125,23.467999033203125C13.412255820312499,23.526149033203126,13.3679458203125,23.574809033203124,13.3100258203125,23.579999033203123C12.4293958203125,23.660389033203124,11.5429058203125,23.651679033203123,10.6640258203125,23.553999033203127Q9.3080258203125,23.407999033203126,8.6300258203125,22.939999033203126C7.9665628203125,22.481379033203126,7.5489311203125,21.744809033203126,7.4960274203125,20.939999033203126Q7.2160268203125,18.461999033203124,9.4600258203125,17.801999033203124C9.7421458203125,17.727869033203124,10.0308658203125,17.681649033203126,10.3220258203125,17.663999033203126C10.6140258203125,17.639999033203125,10.9040258203125,17.613999033203125,11.1960258203125,17.581999033203125C11.4583858203125,17.582429033203127,11.666985820312501,17.361929033203126,11.652025820312499,17.099999033203126C11.6660258203125,16.751999033203123,11.6960258203125,16.399999033203123,11.7400258203125,16.043999033203125C11.7566558203125,15.736034033203126,11.8870958203125,15.445227033203125,12.1060258203125,15.228001033203125ZM10.9320258203125,19.399999033203123Q8.9100258203125,19.375999033203126,9.2880258203125,20.969999033203123C9.3480858203125,21.297829033203126,9.5593758203125,21.578069033203125,9.8580258203125,21.725999033203124C10.1764558203125,21.872189033203124,10.5264758203125,21.936149033203126,10.876025820312499,21.911999033203124Q11.6580258203125,21.875999033203126,11.6600258203125,21.227999033203126L11.6600258203125,20.027999033203123Q11.6600258203125,19.399999033203123,10.9320258203125,19.399999033203123Z" fill="#FFFCFF" fill-opacity="1"/></g><g><path d="M17.39999044921875,21.853989375C17.78199044921875,21.877989375,17.98799044921875,21.693989375,18.01599044921875,21.297989375L18.245990449218752,18.119993375C18.24966044921875,18.046112375,18.28639044921875,17.977804375,18.34599044921875,17.933993375Q19.15799044921875,17.299994375,19.54599044921875,17.991993375C19.68250044921875,18.287007375,19.75086044921875,18.608964375,19.745990449218752,18.933989375Q19.84199044921875,21.099989375,19.835990449218748,23.441989375C19.83605044921875,23.536899375,19.76084044921875,23.614759375,19.66599044921875,23.617989375Q18.04399044921875,23.649989375,16.64999044921875,23.583989375Q14.78799244921875,23.489989375,14.43799244921875,21.697989375C14.20405574921875,20.496989375,14.19998324921875,19.262519375,14.42599344921875,18.059993375C14.43679644921875,17.987533375,14.47556944921875,17.922194375,14.53399344921875,17.877992375C14.84830344921875,17.596865875,15.32368044921875,17.596865875,15.63799044921875,17.877992375C15.69685044921875,17.924853375,15.73780044921875,17.990524375,15.75399044921875,18.063992375C15.94423044921875,18.848729375,16.07790044921875,19.646119375,16.15399044921875,20.449989375C16.20199044921875,20.945989375,16.27999044921875,21.267989375,16.39199044921875,21.411989375C16.59999044921875,21.677989375,16.931990449218752,21.827989375,17.39999044921875,21.853989375Z" fill="#FFFCFF" fill-opacity="1"/></g><g><path d="M10.93199458984375,19.40000610349219Q11.66199458984375,19.40000610349219,11.65999458984375,20.020005979492186L11.65999458984375,21.220003979492187Q11.65999458984375,21.868003979492187,10.87598458984375,21.904003979492188C10.526434589843749,21.928153979492187,10.17641758984375,21.86419397949219,9.85798958984375,21.718003979492188C9.55933458984375,21.570073979492186,9.34804258984375,21.289833979492187,9.28798978984375,20.962003979492188Q8.90998958984375,19.378005979492187,10.93199458984375,19.40000610349219Z" fill="#0000FD" fill-opacity="1"/></g></g></svg>