<svg width="300" height="300" xmlns="http://www.w3.org/2000/svg" viewBox="0 0 300 300">
  <path
    d="M 213.6 0 c 35.9974 0 53.9961 0 66.6137 9.1672 a 48.0000 48.0000 0 0 1 10.6191 10.6191 c 9.1672 12.6175 9.1672 30.6163 9.1672 66.6137 L 300 213.6 c 0 35.9974 0 53.9961 -9.1672 66.6137 a 48.0000 48.0000 0 0 1 -10.6191 10.6191 c -12.6175 9.1672 -30.6163 9.1672 -66.6137 9.1672 L 86.4 300 c -35.9974 0 -53.9961 0 -66.6137 -9.1672 a 48.0000 48.0000 0 0 1 -10.6191 -10.6191 c -9.1672 -12.6175 -9.1672 -30.6163 -9.1672 -66.6137 L 0 86.4 c 0 -35.9974 0 -53.9961 9.1672 -66.6137 a 48.0000 48.0000 0 0 1 10.6191 -10.6191 c 12.6175 -9.1672 30.6163 -9.1672 66.6137 -9.1672 Z"
    fill="currentColor" />
</svg>