<svg xmlns="http://www.w3.org/2000/svg" xmlns:xlink="http://www.w3.org/1999/xlink" fill="none" version="1.1" width="28" height="28" viewBox="0 0 28 28"><defs><clipPath id="master_svg0_37_3833"><rect x="0" y="0" width="28" height="28" rx="0"/></clipPath></defs><g clip-path="url(#master_svg0_37_3833)"><g style="opacity:0;"><path d="M0,0L28,0L28,28L0,28L0,0Z" fill="#FFFFFF" fill-opacity="1"/></g><g><path d="M23.336050537109376,15.75197041015625L23.188050537109376,15.32197041015625C23.238750537109375,15.08347041015625,23.163150537109374,14.83567041015625,22.988050537109373,14.66597041015625C22.515850537109376,14.13937041015625,21.746150537109376,14.00090041015625,21.120050537109375,14.32997041015625C20.722550537109374,14.47377041015625,20.422650537109377,14.80597041015625,20.320050537109374,15.21597041015625C20.263350537109375,15.48697041015625,20.189850537109375,15.75417041015625,20.100050537109375,16.01597041015625C20.021550537109373,16.01517041015625,19.944250537109376,16.035170410156248,19.876050537109375,16.07397041015625Q20.806050537109375,12.15001041015625,18.288050537109378,9.49601041015625C17.717050537109372,8.87816041015625,17.037050537109373,8.371000410156249,16.282050537109377,8.00001041015625C15.503650537109374,7.62988041015625,14.660550537109375,7.41520041015625,13.800050537109374,7.36801041015625C12.040820537109376,7.23611041015625,10.302480537109375,7.8170004101562505,8.976000537109375,8.98001041015625Q6.022000537109375,11.51201041015625,6.6380005371093755,15.49397041015625Q6.000000537109376,13.94801041015625,4.5180005371093745,14.26597041015625C4.234014537109375,14.31677041015625,3.975806537109375,14.46277041015625,3.786004537109375,14.67997041015625C3.596841537109375,14.91147041015625,3.468306537109375,15.18647041015625,3.412004437109375,15.47997041015625Q2.9120045371093752,10.40001041015625,6.174000537109375,7.13601041015625C7.169930537109375,6.13747041015625,8.358740537109375,5.3521904101562505,9.668000537109375,4.82800841015625C11.706360537109376,3.98526841015625,13.972750537109375,3.8701484101562498,16.086050537109376,4.50200841015625C17.446450537109374,4.88482641015625,18.711650537109374,5.54841041015625,19.800050537109374,6.45001041015625Q22.600050537109375,8.80001041015625,23.270050537109373,12.68601041015625C23.441950537109374,13.69927041015625,23.464150537109376,14.73227041015625,23.336050537109376,15.75197041015625Z" fill="#12B166" fill-opacity="1"/></g><g style="opacity:0;"><path d="M19.888021093749998,16.063988857421876Q18.80002109375,19.093978857421874,16.132021093749998,20.297978857421874C15.00277109375,20.799378857421875,13.756281093750001,20.976678857421874,12.53202109375,20.809978857421875Q8.33202109375,20.293978857421877,6.79602309375,15.901988857421875C6.81013909375,15.752688857421875,6.75482809375,15.605188857421876,6.64602309375,15.501988857421875Q6.02002209375,11.513988857421875,8.97602109375,8.979988857421874C10.30249109375,7.816981857421875,12.04084109375,7.236091857421875,13.80002109375,7.367988557421875C14.66059109375,7.415179457421875,15.50368109375,7.629858857421875,16.28202109375,7.999988857421875C17.04052109375,8.366738857421876,17.72472109375,8.870528857421874,18.30002109375,9.485988857421875Q20.818021093749998,12.141988857421875,19.888021093749998,16.063988857421876Z" fill="#FFFBFF" fill-opacity="1"/></g><g><path d="M6.6379873046875,15.494003115234374C6.7467973046875,15.597213115234375,6.8021073046875,15.744713115234376,6.7879873046874994,15.894003115234375C6.7514273046875,16.551903115234374,6.8843373046875005,17.208173115234374,7.1739873046875005,17.800003115234375C7.4596773046875,18.360653115234374,7.8217973046875,18.878933115234375,8.249987304687501,19.340003115234374C8.8681473046875,20.006783115234377,9.6574973046875,20.491053115234376,10.531987304687501,20.740003115234373C10.702087304687499,20.790783115234376,10.8638073046875,20.866253115234375,11.0119873046875,20.964003115234377C11.372357304687501,21.207583115234375,11.7933873046875,21.346083115234375,12.2279873046875,21.364003115234375L13.1379873046875,21.400003115234377C13.8817873046875,21.475223115234375,14.6330873046875,21.385073115234377,15.3379873046875,21.136003115234374C15.9130873046875,20.933913115234375,16.4759873046875,20.698863115234374,17.023987304687502,20.432013115234376C17.662787304687498,20.122473115234374,18.2228873046875,19.671783115234376,18.6619873046875,19.114013115234375C19.0172873046875,18.663903115234376,19.3312873046875,18.182613115234375,19.5999873046875,17.676003115234376C19.8761873046875,17.155183115234376,20.0499873046875,16.586253115234374,20.1119873046875,16.000003115234374C20.2018873046875,15.738173115234375,20.2753873046875,15.470993115234375,20.3319873046875,15.200003115234376C20.4345873046875,14.789941115234376,20.7344873046875,14.457802115234376,21.1319873046875,14.314007115234375C21.7616873046875,13.988713115234376,22.5318873046875,14.133859255234375,22.9999873046875,14.666008115234375C23.1751873046875,14.835640115234375,23.2507873046875,15.083490115234374,23.1999873046875,15.322003115234375C23.1279873046875,15.599593115234375,23.0398873046875,15.872723115234376,22.9359873046875,16.140003115234375C22.8328873046875,16.404733115234375,22.7472873046875,16.675993115234377,22.6799873046875,16.952003115234376C22.3275873046875,18.513163115234377,21.4403873046875,19.901963115234373,20.1719873046875,20.878003115234375C19.8679873046875,21.114003115234375,19.5219873046875,21.418003115234374,19.1299873046875,21.788003115234375C18.6040873046875,22.296703115234376,17.9684873046875,22.677833115234375,17.2719873046875,22.902003115234375Q16.4839873046875,23.154003115234374,15.8999873046875,23.376003115234376C15.4533873046875,23.560693115234375,14.9889873046875,23.698763115234375,14.5139873046875,23.788003115234375C13.6134873046875,23.918563115234377,12.6971873046875,23.891493115234375,11.8059873046875,23.708003115234376C11.3814373046875,23.600173115234377,10.967697304687501,23.453563115234374,10.569987304687501,23.270003115234374C10.1622173046875,23.092303115234373,9.7456773046875,22.935433115234375,9.3219873046875,22.800003115234375C8.8367973046875,22.576273115234375,8.368847304687499,22.316893115234375,7.9219873046875,22.024013115234375C7.8655973046875,21.988443115234375,7.8275973046875,21.929983115234375,7.8179873046875,21.864003115234375C7.7871273046875,21.631663115234375,7.6346473046875,21.433433115234376,7.4179873046875,21.344003115234376L7.099987304687501,21.200003115234374C5.7084973046875,20.380233115234375,4.6895873046875,19.052283115234374,4.2579873046875,17.496013115234376C4.1479873046875,17.128013115234374,4.0579873046875,16.776013115234374,3.9959873046875,16.444003115234374C3.9842103046875,16.396303115234375,3.9530303046875,16.355703115234377,3.9099873046875,16.332013115234375L3.4659874046875,16.060013115234376L3.4119873046875,15.480003115234375C3.4682899046875,15.186423115234374,3.5968253046875,14.911481115234375,3.7859873046875,14.680008115234376C3.9757893046875,14.462756115234376,4.2339973046875,14.316720115234375,4.5179873046875,14.266008115234374Q5.9999873046875,13.952008115234374,6.6379873046875,15.494003115234374Z" fill="#FE9932" fill-opacity="1"/></g><g><path d="M23.188001220703125,15.321990966796875L23.336001220703125,15.751990966796875Q22.468001220703126,20.499990966796876,18.420001220703124,22.901990966796873C16.554901220703123,24.010560966796874,14.371301220703126,24.459960966796874,12.220001220703125,24.177990966796877C9.640311220703126,23.920110966796877,7.2675212207031255,22.651740966796876,5.620001220703125,20.649990966796874C4.503471220703125,19.337410966796874,3.760823220703125,17.748500966796875,3.470001220703125,16.049990966796877L3.914001220703125,16.321990966796875C3.957044220703125,16.345680966796873,3.9882232207031247,16.386290966796874,4.000001220703125,16.433990966796877C4.066001220703125,16.765990966796874,4.152001220703125,17.117990966796874,4.262001220703125,17.485990966796876C4.690321220703125,19.045300966796876,5.707981220703125,20.377080966796875,7.100001220703125,21.199990966796875L7.422001220703125,21.349990966796874C7.638661220703125,21.439420966796874,7.791141220703125,21.637640966796873,7.822001220703125,21.869990966796877C7.831611220703125,21.935960966796877,7.869611220703125,21.994430966796877,7.926001220703125,22.029990966796873C8.372861220703125,22.322870966796877,8.840811220703124,22.582250966796874,9.326001220703125,22.805990966796877C9.745711220703125,22.943110966796876,10.158231220703126,23.101310966796873,10.562001220703124,23.279990966796873C10.960701220703125,23.460240966796874,11.375111220703126,23.603510966796875,11.800001220703125,23.707990966796874C12.691201220703125,23.891480966796877,13.607501220703124,23.918550966796875,14.508001220703125,23.787990966796876C14.983001220703125,23.698750966796876,15.447401220703124,23.560680966796873,15.894001220703124,23.375990966796877Q16.476001220703125,23.153990966796876,17.266001220703124,22.901990966796873C17.962501220703125,22.677810966796876,18.598101220703125,22.296680966796874,19.124001220703125,21.787990966796876C19.524001220703123,21.417990966796875,19.862001220703124,21.113990966796877,20.166001220703127,20.877990966796876C21.434401220703126,19.901950966796875,22.321601220703126,18.513150966796875,22.674001220703126,16.951990966796874C22.741301220703125,16.675980966796875,22.826901220703125,16.404720966796877,22.930001220703126,16.139991966796874C23.031801220703127,15.872578966796874,23.118001220703125,15.599447966796875,23.188001220703125,15.321990966796875Z" fill="#E3A34C" fill-opacity="1"/></g><g><path d="M6.788008113125,15.902008056640625Q8.318010703125,20.302008056640624,12.524010703125,20.810008056640626C13.748270703125,20.976678056640626,14.994760703125,20.799408056640626,16.124010703125002,20.298008056640626Q18.791970703125,19.098008056640627,19.879970703125,16.064009056640625C19.948270703125,16.025218056640625,20.025570703125,16.005205056640627,20.103970703125,16.006009056640625C20.043770703125,16.589658056640626,19.872670703125,17.156448056640624,19.599970703125003,17.676008056640626C19.327770703124997,18.180928056640624,19.010470703125,18.660208056640624,18.651970703125002,19.108008056640625C18.212970703125002,19.665788056640626,17.652870703125,20.116468056640624,17.013970703125,20.426008056640626C16.465990703125,20.692858056640624,15.903060703125,20.927908056640625,15.328010703125,21.130008056640627C14.623090703125001,21.379068056640627,13.871840703124999,21.469218056640624,13.128010703125,21.394008056640626L12.218010703125,21.358008056640625C11.783410703125,21.340078056640625,11.362380703125,21.201578056640624,11.002010703125,20.958008056640626C10.853830703125,20.860258056640625,10.692110703125,20.784778056640626,10.522010703125,20.734008056640626C9.647520703125,20.485048056640625,8.858170703125,20.000778056640627,8.240010703125,19.334008056640624C7.815800703125,18.874148056640625,7.457081703125,18.357948056640623,7.174007703125,17.800008056640625C6.885702703125,17.210568056640625,6.752831303125,16.557231056640624,6.788008113125,15.902008056640625Z" fill="#E3A34C" fill-opacity="1"/></g><g><ellipse cx="24.50998592376709" cy="22.411993980407715" rx="2.51200008392334" ry="2.51200008392334" fill="#FE9932" fill-opacity="1"/></g></g></svg>