<svg class="icon" viewBox="0 0 1293 1024" xmlns="http://www.w3.org/2000/svg" width="252.539"
    height="200">
  <path
      d="M1067.844 152.55H601.552a101.7 101.7 0 0 1-71.698-30.002L436.799 30A101.7 101.7 0 0 0 364.592 0H101.7A101.7 101.7 0 0 0 0 101.7v711.895a152.55 152.55 0 0 0 152.55 152.55h915.294a152.55 152.55 0 0 0 152.549-152.55V305.098a152.55 152.55 0 0 0-152.55-152.549z"
      fill="#176299" />
  <path
      d="M152.55 152.55h915.294q152.549 0 152.549 152.548v508.497q0 152.55-152.55 152.55H152.55Q0 966.144 0 813.594V305.098Q0 152.55 152.55 152.55Z"
      fill="#0B70DD" />
  <path
      d="m770.881 678.843-141.87 141.871a25.425 25.425 0 0 1-36.104 0l-141.87-141.87a25.425 25.425 0 0 1 17.797-43.223h90.513V381.373a50.85 50.85 0 0 1 101.7 0V635.62h91.02a25.425 25.425 0 0 1 18.814 43.222z"
      fill="#176299" />
  <path
      d="m796.306 653.419-141.87 141.87a25.425 25.425 0 0 1-36.104 0l-141.87-141.87a25.425 25.425 0 0 1 17.797-43.223h91.021V355.948a50.85 50.85 0 0 1 101.7 0v254.248H778a25.425 25.425 0 0 1 18.306 43.223z"
      fill="#3395FF" />
</svg>