<svg class="icon" viewBox="0 0 1024 1024" xmlns="http://www.w3.org/2000/svg" width="200"
  height="200">
  <path
    d="M606.822 443.802a63.078 63.078 0 0 1 67.124-14.797 7.424 7.424 0 0 0 2.048.819 14.643 14.643 0 0 0 14.54-3.686 14.029 14.029 0 0 0 3.533-6.144 14.336 14.336 0 0 0-3.533-14.746L560.998 274.944 453.94 382.464a14.694 14.694 0 0 1-24.473-14.643 12.8 12.8 0 0 1 .819-2.1 64.102 64.102 0 0 0-25.293-75.724 63.334 63.334 0 0 0-79.155 8.345 64.256 64.256 0 0 0-9.011 79.514 63.437 63.437 0 0 0 75.264 26.112 7.168 7.168 0 0 1 3.174-1.28h.768a14.49 14.49 0 0 1 15.923 7.424 14.746 14.746 0 0 1-2.662 17.46L303.872 533.503l124.262 124.98a14.797 14.797 0 0 1 2.356 18.022 14.592 14.592 0 0 1-16.845 6.553 8.55 8.55 0 0 1-2.1-.819 63.437 63.437 0 0 0-75.468 25.6 64.154 64.154 0 0 0 8.294 79.565 63.386 63.386 0 0 0 79.104 9.113 64.154 64.154 0 0 0 25.907-75.673 7.322 7.322 0 0 1-1.228-3.226v-.768a14.797 14.797 0 0 1 7.424-16.025 14.592 14.592 0 0 1 17.356 2.662l82.586 83.098 257.075-258.56-77.312-77.773a14.029 14.029 0 0 0-14.694-3.533 13.158 13.158 0 0 0-6.042 3.533 14.746 14.746 0 0 0-4.045 13.312v.819a7.782 7.782 0 0 0 1.23 3.174 64.102 64.102 0 0 1-25.652 75.162 63.386 63.386 0 0 1-78.9-8.55 64.256 64.256 0 0 1 0-90.47" />
  <path
    d="M306.893 202.291a47.206 47.206 0 1 1 43.827-44.032 47.053 47.053 0 0 1-43.827 44.032m602.214 15.36L564.122 17.203a104.397 104.397 0 0 0-104.295 0L357.222 76.8a93.85 93.85 0 0 0-53.81-16.64 95.078 95.078 0 0 0-20.48 187.648h.46l4.096.82h1.126l3.43.46h4.353c2.509 0 5.12.307 7.526.307a94.72 94.72 0 0 0 94.413-94.157v-5.273a3.891 3.891 0 0 1 0-.768l102.86-59.853a21.555 21.555 0 0 1 21.607 0l344.883 200.243a21.811 21.811 0 0 1 10.804 18.79v400.538a21.76 21.76 0 0 1-10.804 18.79l-5.888 3.431a22.118 22.118 0 0 0-7.987 30.106l19.456 33.945a21.914 21.914 0 0 0 29.952 8.09l5.888-3.43a105.42 105.42 0 0 0 52.173-90.88v-400.59a105.728 105.728 0 0 0-52.173-90.828M723.098 909.363a47.206 47.206 0 1 1 43.827-44.083 47.104 47.104 0 0 1-43.827 44.083M759.5 775.936l-1.741-.82-1.382-.562-3.738-1.434h-.41a94.464 94.464 0 0 0-126.77 89.293v5.99l-102.964 59.802a21.709 21.709 0 0 1-21.606 0L156.314 727.757a21.914 21.914 0 0 1-10.804-18.842V308.43a21.914 21.914 0 0 1 10.804-18.842l21.248-12.339a22.067 22.067 0 0 0 7.987-30.054l-19.507-33.997a21.811 21.811 0 0 0-29.901-8.039l-21.248 12.34a105.42 105.42 0 0 0-52.173 90.88v400.64a105.677 105.677 0 0 0 52.173 90.828l344.934 200.295A104.038 104.038 0 0 0 512 1014.17a104.14 104.14 0 0 0 52.122-14.03l102.4-59.545a93.9 93.9 0 0 0 53.76 16.64 95.078 95.078 0 0 0 39.065-181.299" />
</svg>