<svg class="icon" viewBox="0 0 1024 1024" xmlns="http://www.w3.org/2000/svg" width="200"
  height="200">
  <path
    d="m107.2838 327.3245 510.1663-83.5155q97.9756-16.0389 114.0145 81.9368l52.0117 317.721q16.039 97.9757-81.9368 114.0146l-510.1662 83.5155Q93.3976 857.0357 77.3588 759.06L25.347 441.339q-16.039-97.9757 81.9367-114.0146Z"
    fill="#0F62FE" />
  <path
    d="m318.5675 72.8515 16.7953-2.7486c71.117-11.6413 138.206 36.5732 149.8473 107.6887l18.1753 84.6914 33.592-5.4987-9.7777-86.0657C511.7617 76.6114 422.7971 12.6752 328.4898 28.1118l-16.7953 2.7514c-94.3072 15.4352-158.2434 104.4012-142.8054 198.7071l18.1739 84.6913 33.592-5.4987-9.7777-86.0656c-11.6412-71.117 36.5733-138.206 107.6902-149.8472z"
    fill="#0F62FE" />
  <path
    d="m722.2391 231.4623 16.2833 4.9512c68.9456 20.968 107.8405 93.8563 86.8727 162.8018l-16.9556 67.5032c-2.3217 9.2444 3.0181 18.6859 12.1377 21.4586s18.8106-2.0962 22.0287-11.0683l23.4967-65.5147c27.804-91.4267-23.7718-188.0841-115.2-215.8881l-16.2833-4.9513c-91.4282-27.8054-188.0841 23.7719-215.8881 115.2l-16.9556 67.5032c-2.3217 9.2444 3.0167 18.6859 12.1362 21.4586 9.1196 2.7742 18.8121-2.0962 22.0288-11.0683l23.4981-65.5133c20.9665-68.9455 93.8549-107.8405 162.8004-86.8726z"
    fill="#C1D0FF" fill-opacity=".4" />
  <path
    d="m425.1282 346.703 494.592 150.41q94.9847 28.8857 66.099 123.8704L892.147 929.005q-28.8857 94.9847-123.8704 66.099l-494.592-150.41q-94.9847-28.8857-66.099-123.8704l93.6722-308.0218q28.8858-94.9846 123.8704-66.099Z"
    fill="#C1D0FF" fill-opacity=".4" />
  <path
    d="M604.3004 715.9065c33.09.8041 63.9943-20.3666 74.0982-53.577 12.1462-39.9318-10.3762-82.1484-50.308-94.296-39.9302-12.1476-82.1483 10.3762-94.2959 50.3065-10.1024 33.212 3.777 68.0066 31.71 85.7635l-13.139 43.191c-3.2592 10.7137 2.7841 22.0401 13.4964 25.2993 10.7137 3.2592 22.0401-2.784 25.2993-13.4978l13.139-43.1895z"
    fill="#FFF" />
</svg>