<?xml version="1.0" standalone="no"?><!DOCTYPE svg PUBLIC "-//W3C//DTD SVG 1.1//EN" "http://www.w3.org/Graphics/SVG/1.1/DTD/svg11.dtd"><svg t="1678604022024" class="icon" viewBox="0 0 1024 1024" version="1.1" xmlns="http://www.w3.org/2000/svg" p-id="14462" xmlns:xlink="http://www.w3.org/1999/xlink" width="200" height="200"><path d="M793.6 563.2H179.2c-15.36 0-25.6 10.24-25.6 25.6v204.8H128c-15.36 0-25.6-10.24-25.6-25.6V230.4c0-15.36 10.24-25.6 25.6-25.6h640c15.36 0 25.6 10.24 25.6 25.6v332.8z" fill="#2c2c2c" p-id="14463"></path><path d="M230.4 614.4h691.2c15.36 0 25.6 10.24 25.6 25.6v179.2c0 15.36-10.24 25.6-25.6 25.6H230.4c-15.36 0-25.6-10.24-25.6-25.6v-179.2c0-15.36 10.24-25.6 25.6-25.6z m128 76.8v76.8h76.8v-76.8h-76.8z m179.2 0v76.8h76.8v-76.8h-76.8z m179.2 0v76.8h76.8v-76.8h-76.8z" fill="#2c2c2c" p-id="14464"></path></svg>