<svg class="icon" viewBox="0 0 1024 1024" xmlns="http://www.w3.org/2000/svg" width="128"
  height="128">
  <path
    d="M434.73137777777777 91.13600000000014c58.08355555555555-4.425955555555557 117.12284444444444 3.037866666666659 172.0661333333333 22.516622222222225 79.73546666666667 27.9552 150.4142222222222 80.72533333333334 200.20337777777777 148.94648888888884 28.18275555555556 38.41137777777778 49.73226666666666 81.66968888888889 63.54488888888888 127.26044444444443 24.00711111111111 79.82648888888889 23.98435555555554 166.68444444444444 0.09102222222222167 246.5336888888889-2.8899555555555554 8.76088888888889-5.188266666666666 17.772088888888888-9.102222222222222 26.157511111111106 0.614399999999999-9.71662222222222 0.7509333333333323-19.672177777777776-2.1731555555555566-29.070222222222224-4.03911111111111-12.959288888888889-11.491555555555557-25.042488888888894-22.095644444444446-33.65546666666666-14.347377777777774-11.992177777777774-33.553066666666666-17.828977777777773-52.14435555555555-16.088177777777773-18.92124444444444 1.5928888888888881-37.250844444444446 11.025066666666664-48.9472 26.066488888888884-1.5701333333333334 1.9342222222222218-3.1288888888888886 3.868444444444444-4.642133333333334 5.848177777777777 18.136177777777778-48.24177777777778 23.142400000000002-101.34186666666666 14.290488888888902-152.12088888888883-7.0428444444444445-41.49475555555556-23.836444444444435-81.19182222222223-48.11662222222222-115.52995555555555-22.948977777777777-32.10808888888889-52.462933333333325-59.56266666666667-86.42559999999999-79.68995555555554-40.823466666666675-24.416711111111113-87.98435555555555-38.11555555555557-135.5320888888889-39.43537777777777-53.8624-1.7635555555555555-108.15715555555556 12.287999999999997-154.24853333333334 40.254577777777776-54.86364444444444 32.90453333333333-97.97404444444443 84.9351111111111-119.94453333333334 145.02115555555554-24.075377777777778 64.7736888888889-23.244799999999998 138.3424 2.241422222222212 202.56995555555557-8.521955555555556-13.5168-21.23093333333333-24.416711111111113-36.36337777777778-29.832533333333334-21.549511111111112-8.032711111111112-47.05848888888889-4.994844444444446-65.7863111111111 8.487822222222224-11.377777777777775 7.714133333333332-20.241066666666665 18.955377777777777-25.110755555555556 31.81226666666667-4.1984 10.387911111111112-4.892444444444445 21.822577777777777-3.959466666666664 32.89315555555555-15.883377777777778-42.99662222222222-25.349688888888892-88.49635555555555-26.79466666666667-134.36017777777778-1.9455999999999953-61.815466666666666 9.682488888888898-124.07466666666666 34.25848888888889-180.86115555555557 27.966577777777772-64.94435555555555 72.53333333333333-122.69795555555557 128.39822222222222-166.07004444444448 64.56888888888889-50.69937777777778 144.40675555555555-81.69244444444442 226.29262222222218-87.65439999999998z"
    fill="#19B957" />
  <path
    d="M101.64693333333332 595.3763555555556c18.727822222222223-13.482666666666667 44.2368-16.520533333333333 65.7863111111111-8.487822222222224 15.132444444444445 5.415822222222221 27.841422222222224 16.315733333333334 36.36337777777778 29.832533333333334 6.735644444444446 14.256355555555555 13.073066666666666 28.75164444444444 21.503999999999998 42.120533333333334 21.95911111111111 36.681955555555554 52.383288888888885 68.19839999999999 88.12088888888887 91.62524444444443 36.42026666666666 23.916088888888886 78.4839111111111 39.18506666666666 121.7877333333333 44.066133333333326 45.7728 5.302044444444437 92.88817777777777-0.6144000000000105 135.7255111111111-17.68106666666668 37.46702222222222-14.66595555555555 71.80515555555556-37.455644444444445 99.63519999999998-66.53724444444444 26.476088888888885-26.988088888888885 47.024355555555545-59.56266666666667 60.962133333333306-94.6631111111111 1.5132444444444444-1.979733333333333 3.072-3.9139555555555554 4.642133333333334-5.848177777777777 11.696355555555554-15.041422222222224 30.02595555555555-24.473599999999998 48.9472-26.066488888888884 18.591288888888887-1.7408000000000001 37.79697777777777 4.096 52.14435555555555 16.088177777777773 10.604088888888887 8.612977777777779 18.056533333333327 20.69617777777778 22.095644444444446 33.65546666666666 2.924088888888888 9.398044444444444 2.7875555555555547 19.3536 2.1731555555555566 29.070222222222224-0.7395555555555555 4.039111111111111-2.6624 7.714133333333334-4.187022222222222 11.502933333333331-20.60515555555555 49.90293333333332-50.92693333333334 95.75537777777777-88.64426666666665 134.3829333333333-39.60604444444444 40.44799999999999-87.2448 73.09084444444444-139.60533333333333 94.68586666666667-71.23626666666665 29.843911111111105-150.82382222222222 39.08266666666666-227.07768888888887 27.044977777777774-48.787911111111114-7.543466666666667-96.17635555555557-24.007111111111122-139.24124444444445-48.139377777777774-78.25635555555556-43.59964444444445-142.04017777777779-112.73102222222222-178.83591111111113-194.44622222222227-3.9253333333333336-9.1136-8.055466666666666-18.147555555555552-11.366399999999997-27.500088888888893-0.9329777777777783-11.070577777777778-0.23893333333333366-22.505244444444443 3.959466666666664-32.89315555555555 4.869688888888888-12.85688888888889 13.732977777777776-24.09813333333333 25.110755555555556-31.81226666666667zM915.3742222222222 766.4639999999999c14.904888888888888-1.797688888888887 30.355911111111112 1.2515555555555569 43.23555555555555 9.03395555555555 23.449599999999997 13.494044444444445 37.04604444444444 41.74506666666666 33.00693333333333 68.49422222222222-3.242666666666665 24.723911111111114-21.13991111111111 46.89919999999999-44.71466666666666 55.09119999999999-23.415466666666664 8.590222222222224-51.26826666666667 3.094755555555551-69.50684444444443-13.949155555555553-13.90364444444444-12.674844444444442-22.10702222222222-31.209244444444444-22.311822222222226-50.00533333333333-0.034133333333334015-12.925155555555556 3.4133333333333358-25.9072 10.410666666666666-36.818488888888886 10.706488888888888-17.362488888888883 29.570844444444443-29.559466666666665 49.88017777777778-31.846400000000003z"
    fill="#F7B516" />
</svg>