<svg class="icon" viewBox="0 0 1094 1024" xmlns="http://www.w3.org/2000/svg" width="128"
  height="128">
  <path
    d="M425.960867 63.065382c87.750835-23.782252 182.718123-25.259108 269.485405 3.526348 8.610921 2.05051 16.975699 4.839447 25.094335 8.201023 14.024023 4.429549 28.54033 8.201022 40.841355 16.566817 110.550552 48.302932 200.433266 142.615196 246.030665 254.313056 44.777601 104.15288 50.845727 224.544048 16.648186 332.715561-41.907294 140.483316-151.473276 258.495446-288.019328 311.720212-185.835589 75.367424-415.218067 22.061289-546.023507-130.72407-51.502785-58.309339-90.29363-128.428434-107.597858-204.533269-24.766822-95.624346-20.420677-200.678392 16.730574-292.612633 5.986756-20.009762 15.582247-38.626072 24.930578-57.161013 61.835687-117.273702 173.615934-207.649718 301.879595-242.012032m70.364221 24.931596C378.723875 103.250696 268.173323 167.300649 196.988288 262.186567c-74.465241 96.690285-105.957247 224.625417-86.110224 344.935216 19.107578 123.998886 93.737592 237.501114 198.792655 305.651068 89.39043 58.96538 200.433266 83.650833 306.471883 69.134525 123.014315-15.82839 238.157155-85.53657 308.849904-187.556552 69.872953-98.084754 96.854041-224.872577 74.219098-342.967093-23.783269-131.462497-110.468165-249.147114-227.742883-312.540009-83.239917-45.762172-181.158881-63.312542-275.143633-50.846744z"
    fill="#DE5833" />
  <path
    d="M424.074113 136.874582C539.298322 98.24851 671.089349 113.009943 774.504818 176.978526c102.759428 62.00046 175.993956 170.170956 195.102551 288.676387 15.663617 93.327693-0.820814 191.985085-47.812681 274.323835-55.766544 100.134247-154.342566 176.075325-266.204183 202.319004-7.709754-15.007576-15.172349-30.179924-21.569004-45.843541-3.854877-1.149343-11.646001-3.526348-15.582247-4.674675l2.296653-10.496657c31.819518 13.448334 64.623607 25.176721 99.232063 28.784438 9.349348-45.268869 7.217469-92.260736-5.740614-136.710825-30.753579 9.349348-57.324769 27.637129-83.48606 45.597398-12.71194-2.049493-25.341494-4.017616-38.053435-5.248329-20.092148-53.552278-39.938154-110.139636-31.08109-168.285219 79.221284 35.920538 175.255528 61.671931 256.608691 16.89433 9.841633-7.298839 33.37876-17.960269 21.159105-32.721702-16.729556-6.232899-34.443683 1.148326-51.174256 3.608734-48.221563 11.317472-99.724348 21.321844-148.438196 7.298839-17.058085-4.428532-38.462316-21.322861-27.801902-41.005111 5.576858-20.338291 29.196371-13.860267 44.532476-13.77788 52.07644 7.626351 100.05186-17.960269 147.863524-34.198557 27.228248-12.054882 59.703808-19.928392 78.401487-44.777602-1.639594-20.009762-30.34368-20.665803-46.089683-22.552556-47.236993 7.627368-91.604695 27.719516-138.760319 36.412823 8.69229-75.039912-17.386615-151.965561-65.85432-209.126574-18.698697-23.53611-49.124764-28.703069-74.219098-41.496379-54.537865-53.553295-137.941539-75.368441-211.914494-57.079643a4609.454535 4609.454535 0 0 1 42.809478 16.730574c-8.693307 2.78792-25.997535 8.364778-34.608456 11.152698-3.854877 6.315285-7.709754 12.71194-11.563614 19.027226 41.251253-1.722998 83.076161-0.820814 123.015333 11.071329-37.643536 9.020819-80.205854 16.5658-106.20339 48.302932-40.922724 43.220394-42.563336 107.680245-33.706272 163.119277 28.54033 150.07779 63.476298 299.008271 91.688099 449.087078-103.742981-36.822722-192.149858-114.896697-239.388885-214.620027-51.747911-106.531919-54.94573-235.123092-8.69229-344.196789 45.925928-110.222023 141.221744-198.628899 254.805342-235.696746z"
    fill="#DE5833" />
  <path
    d="M496.325088 87.996978c93.983734-12.465798 191.903715 5.084573 275.14465 50.845727 117.273702 63.393911 203.958597 181.078529 227.741866 312.541026 22.634943 118.094516-4.346145 244.882339-74.219098 342.966075-70.69275 102.021-185.835589 171.730197-308.849904 187.55757-106.039634 14.516308-217.081453-10.169145-306.471883-69.134525-105.055063-68.149955-179.68406-181.652183-198.792655-305.652086-19.847023-120.308782 11.646001-248.243914 86.110224-344.935215 71.185035-94.884901 181.73457-158.934853 299.337817-174.188572m-72.251992 48.877604c-113.583598 37.068864-208.879414 125.475741-254.805341 235.696746-46.25344 109.074714-43.054604 237.665887 8.693307 344.197806C225.200089 816.491447 313.606965 894.565422 417.349947 931.389161c-28.211801-150.078807-63.147769-299.009288-91.688099-449.088095-8.857063-55.438015-7.216452-119.897866 33.707289-163.117243 25.996518-31.738149 68.559854-39.28313 106.202372-48.303949-39.939171-11.892143-81.764079-12.794327-123.015332-11.071329 3.854877-6.315285 7.709754-12.71194 11.563614-19.027226 8.610921-2.78792 25.916166-8.364778 34.608456-11.152698a4609.454535 4609.454535 0 0 0-42.809478-16.730574c73.972955-18.287781 157.377646 3.526348 211.914494 57.079643 25.094334 12.79331 55.520401 17.960269 74.219098 41.496379 48.467705 57.16203 74.54661 134.086661 65.85432 209.126574-21.65139 5.329698-43.875418 7.872493-66.100463 9.184575-38.29856 0.820814-76.105852 21.486617-98.002367 52.732481-5.494471 24.356924 9.513104 48.058824 27.801903 62.901626-8.857063 58.145583 10.988943 114.732941 31.08109 168.285219-14.597677 1.558225-28.375557 6.88894-42.234806 11.481228-31.573376-13.531737-62.73787-31.983274-98.083737-32.065661-1.230713 47.23801-1.722998 95.21343 9.923003 141.303113 29.523883-2.214266 55.029133-18.69768 80.779509-31.737132 25.012965 3.772491 50.845727 3.443961 74.547627-6.725184l0.819797-4.182389c3.936247 1.148326 11.72737 3.526348 15.582247 4.674674 6.397672 15.663617 13.859249 30.835965 21.569004 45.843541 111.861617-26.243678 210.437639-102.184756 266.204182-202.319003 46.991867-82.338751 63.476298-180.996142 47.812682-274.323835-19.108595-118.504414-92.34414-226.675927-195.102551-288.676387-103.414452-63.967566-235.205478-78.728999-350.429688-40.102927m170.580855 236.599947c20.585451-9.349348 42.891865-8.037266 64.70701-5.003203-19.60088-18.61631-48.058824-15.992146-64.705993 5.003203M375.360266 406.35897c13.860267-27.390987 43.383133-35.100741 71.923462-34.443683-28.6217-13.285595-72.087219-3.526348-71.923462 34.443683m242.42193 55.029133c18.206412 22.306414 54.209336 15.089962 56.504971-16.155902-7.708737-0.656041-23.126211-2.05051-30.835965-2.788937l30.426067-5.575841c-12.301025-6.479041-26.653576-21.159105-41.415009-11.317471-13.77788 6.396655-13.695493 22.962455-14.680064 35.838151m-188.377367-23.700883c-18.533924 4.264776-29.523883 28.375557-18.533924 44.613846 9.595491 18.533924 38.380946 20.993315 50.600602 3.690104 17.795496-21.486617-4.593305-57.489542-32.066678-48.30395z"
    fill="#FFFFFF" />
  <path
    d="M445.725504 450.481547c11.72737-2.705534 15.335088 1.558225 10.825186 12.711941-11.72737 2.624164-15.336105-1.558225-10.825186-12.711941z"
    fill="#FFFFFF" />
  <path
    d="M594.655985 373.474529c16.64717-20.995349 45.105113-23.619513 64.705993-5.003203-21.815146-3.034063-44.122577-4.346145-64.705993 5.003203zM375.360266 406.35897c-0.163756-37.970031 43.301763-47.729278 71.923462-34.443683-28.54033-0.656041-58.063196 7.052696-71.923462 34.443683z m242.42193 55.029133c0.98457-12.875696 0.902184-29.441497 14.680064-35.838151 14.761433-9.841633 29.113985 4.83843 41.415009 11.317471l-30.426067 5.575841c7.709754 0.738428 23.127228 2.132896 30.835965 2.788937-2.295635 31.245864-38.29856 38.462316-56.504971 16.155902z m-188.377367-23.700883c27.473373-9.184575 49.862174 26.817332 32.066678 48.302933-12.219655 17.305245-41.005111 14.844837-50.601619-3.689087-10.988943-16.238288 0-40.34907 18.534941-44.613846m16.320675 12.79331c-4.510918 11.153716-0.902184 15.336105 10.825186 12.71194 4.509901-11.153716 0.902184-15.418491-10.825186-12.71194z"
    fill="#2E4F8E" />
  <path
    d="M697.905664 520.600643c47.15664-8.693307 91.524343-28.785456 138.761335-36.412823 15.746003 1.886754 44.450089 2.542795 46.089684 22.552556-18.69768 24.849209-51.174256 32.722719-78.401487 44.777602-47.811664 16.238288-95.787084 41.824908-147.863525 34.198557-15.336105-0.081369-38.955618-6.560411-44.532475 13.77788-10.660413 19.681233 10.743817 36.575562 27.801902 41.005111 48.713848 14.023005 100.216633 4.017616 148.438196-7.298839 16.730573-2.461425 34.4447-9.841633 51.174256-3.608734 12.219655 14.761433-11.317472 25.422864-21.158088 32.721702-81.354181 44.777601-177.388425 19.026209-256.609708-16.89433-18.287781-14.84382-33.296374-38.544702-27.801903-62.901626 21.896516-31.245864 59.703808-51.911667 98.002367-52.732481 22.224028-1.312082 44.449072-3.854877 66.100463-9.184575z"
    fill="#FDD20A" />
  <path
    d="M630.740279 818.952873c26.160274-17.960269 52.732481-36.24805 83.48606-45.597399 12.958083 44.450089 15.089962 91.441957 5.740613 136.710826-34.608456-3.607717-67.412545-15.336105-99.232063-28.784438l-2.296652 10.496657-0.819797 4.182389c-23.700883 10.169145-49.533645 10.496657-74.547627 6.725184-25.750376 13.039452-51.255626 29.522866-80.779509 31.737132-11.646001-46.089684-11.153716-94.065104-9.923003-141.303113 35.345866 0.081369 66.509344 18.533924 98.083737 32.065661 13.859249-4.592288 27.637129-9.923003 42.234806-11.481228 12.71194 1.230713 25.341494 3.198836 38.053435 5.248329z"
    fill="#65BC46" />
</svg>