<svg class="icon" viewBox="0 0 1024 1024" xmlns="http://www.w3.org/2000/svg" width="128"
  height="128">
  <path
    d="M522.24 437.76V614.4h289.28c-12.8 74.24-87.04 220.16-289.28 220.16C348.16 834.56 204.8 691.2 204.8 512S348.16 189.44 522.24 189.44c99.84 0 166.4 43.52 204.8 79.36l138.24-133.12C775.68 51.2 660.48 0 522.24 0 238.08 0 10.24 230.4 10.24 512s227.84 512 512 512c294.4 0 491.52-207.36 491.52-501.76 0-33.28-2.56-58.88-7.68-84.48H522.24z"
    fill="#2CA94F" />
  <path
    d="M872.96 890.88c89.6-89.6 140.8-217.6 140.8-366.08 0-33.28-2.56-58.88-7.68-84.48H522.24V614.4h289.28c-7.68 43.52-35.84 112.64-97.28 161.28l158.72 115.2z"
    fill="#3E82F7" />
  <path
    d="M71.68 755.2C33.28 683.52 10.24 601.6 10.24 512c0-76.8 15.36-148.48 46.08-212.48l163.84 115.2C209.92 445.44 204.8 478.72 204.8 512c0 43.52 7.68 87.04 25.6 125.44l-158.72 117.76z"
    fill="#FCBD00" />
  <path
    d="M56.32 299.52C135.68 122.88 314.88 0 522.24 0c138.24 0 253.44 51.2 343.04 133.12l-138.24 133.12c-38.4-35.84-104.96-79.36-204.8-79.36-143.36 0-266.24 99.84-304.64 235.52l-161.28-122.88z"
    fill="#ED422C" />
</svg>