<svg class="icon" viewBox="0 0 1024 1024" xmlns="http://www.w3.org/2000/svg" width="128"
  height="128">
  <path
    d="M494.100048 420.451609a40.829891 40.829891 0 0 0-9.519975 1.239997c-11.859968 2.999992-18.89995 21.279943-8.529977 31.229917a114.769694 114.769694 0 0 0 10.709971 8.999976c18.74995 13.999963 19.859947 36.529903 15.729958 50.349865a19.769947 19.769947 0 0 1-9.489974 12.169968 22.909939 22.909939 0 0 1-16.889955 2.559993 45.819878 45.819878 0 0 1-21.579943-11.08997l-9.259975-9.329976c-0.709998-0.699998-1.419996-2.049995-2.789993-0.839997 7.35998 18.389951 18.559951 28.999923 36.919902 34.589907a117.409687 117.409687 0 0 0 16.149957 4.06999c6.109984 0.949997 11.16997 2.999992 14.81996 8.239978 1.239997 1.779995 2.909992 1.719995 4.339989-0.18 3.999989-5.329986 9.399975-7.289981 15.809958-8.199978 5.449985-0.759998 10.729971-2.859992 16.079957-4.289989 15.10996-4.069989 25.359932-13.919963 32.619913-27.329927 1.199997-2.199994 2.759993-4.329988 2.869992-8.249978-2.649993 2.899992-4.499988 4.999987-6.469983 6.999982-7.52998 7.65998-16.249957 13.339964-26.929928 15.559958-12.689966 2.629993-23.729937-4.189989-26.769928-16.609956-4.189989-17.079954 0.949997-38.529897 17.119954-48.999869a57.799846 57.799846 0 0 0 8.919976-7.049981c5.339986-5.259986 7.999979-11.479969 5.259986-19.069949s-7.749979-12.999965-16.149957-14.329962a39.489895 39.489895 0 0 0-6.119984-0.419999c-12.279967-0.1-24.559935-0.17-36.849901-0.02z m239.409361 65.619825a2.609993 2.609993 0 0 0-1.529995 1.999995 49.279869 49.279869 0 0 0-1.089998 5.999984c-0.799998 6.669982-1.579996 13.339964-2.279993 19.999946-1.489996 13.939963-2.879992 27.909926-2.999992 41.939889-0.299999 29.81992-0.739998 59.629841 1.629995 89.399761 0.919998 11.36997 1.469996 22.739939 2.299994 34.109909 0.549999 7.56998 1.259997 15.12996 1.999995 22.68994 1.459996 14.539961 3.049992 29.059923 4.449988 43.599884 1.449996 14.82996 2.649993 29.679921 4.129989 44.509881 1.219997 12.499967 2.579993 24.999933 3.179991 37.5499 0.249999 5.539985 1.079997 10.999971 1.719996 16.559956 0.05 0.469999 0.609998 0.879998 0.949997 1.339996 0.259999 0 0.629998 0.12 0.789998 0a21.379943 21.379943 0 0 0 2.469994-2.409993 231.579383 231.579383 0 0 0 23.699936-35.779905c21.319943-39.709894 30.659918-82.47978 32.759913-127.129661 0.649998-13.789963-0.629998-27.509927-1.999995-41.13989a281.999248 281.999248 0 0 0-16.479956-70.709812c-8.529977-22.55994-19.479948-43.819883-34.439908-62.819832-3.499991-4.429988-6.999981-8.879976-10.819971-12.999966l-5.999984-5.999984z m-443.128818-4.999987a58.857843 58.857843 0 0 0-3.71999 3.689991 227.279394 227.279394 0 0 0-23.429938 30.549918c-30.729918 47.309874-46.769875 98.999736-46.689875 160.399573-0.299999 10.999971 1.239997 26.619929 3.46999 42.259887a264.169296 264.169296 0 0 0 36.549903 101.549729A287.509233 287.509233 0 0 0 276.950627 848.000469c0.699998 0.889998 1.609996 1.879995 2.899992 1.449996s1.179997-1.829995 1.299996-2.999992c1.859995-19.169949 3.62999-38.359898 5.579986-57.539846 1.399996-13.649964 3.169992-27.259927 4.579987-40.899891 1.489996-14.519961 2.759993-29.059923 4.079989-43.589884 0.749998-8.149978 1.319996-16.309957 2.089995-24.439935 1.489996-15.699958 2.549993-31.429916 3.069992-47.179874l0.479998-23.939936c0.14-3.999989 0.379999-7.999979 0.779998-11.999968a85.179773 85.179773 0 0 0-0.469998-20.119947 71.12981 71.12981 0 0 1-0.499999-7.859979c-0.299999-13.129965-0.589998-26.23993-1.659996-39.389895-1.109997-13.399964-2.999992-26.679929-4.369988-39.999893a53.499857 53.499857 0 0 0-1.609996-7.709979l-0.649998-0.909998-1.089997-0.289999zM713.499463 1.522726a29.509921 29.509921 0 0 1 10.329972 7.999979 128.909656 128.909656 0 0 1 21.769942 36.829901A213.80943 213.80943 0 0 1 756.999347 94.902477c1.109997 8.999976 2.079994 17.999952 2.999992 26.999928a47.819873 47.819873 0 0 1 0.279999 7.879979c-1.209997 17.809953-2.999992 35.479905-8.829976 52.57986A173.099539 173.099539 0 0 1 722.329439 235.002103c-1.829995 2.279994-3.74999 4.509988-5.369985 6.939982-5.539985 8.279978-2.239994 18.59995 6.999981 22.189941 2.459993 0.999997 4.999987 1.699995 7.37998 2.799992 3.159992 1.489996 6.259983 3.129992 9.279975 4.909987 5.459985 3.219991 9.579974 7.709979 11.57997 13.819963s6.149984 8.999976 12.159967 9.869974a42.069888 42.069888 0 0 1 4.319989 0.739998c4.999987 1.279997 6.819982 3.379991 7.28998 8.539977 0.409999 4.459988-0.999997 8.689977-1.999994 12.939966a5.249986 5.249986 0 0 1-3.539991 3.62999 20.559945 20.559945 0 0 1-4.199989 1.169997c-3.67999 0.499999-5.609985 2.909992-6.829982 6.069984a70.389812 70.389812 0 0 0-4.169988 16.999955c-1.469996 12.489967-3.279991 24.929934-6.749982 37.059901-1.449996 5.049987-2.999992 10.109973-4.869987 14.99996a11.07997 11.07997 0 0 0 0.929997 9.999973c1.749995 3.109992 4.299989 5.509985 6.709982 8.049979 19.529948 20.609945 38.269898 41.889888 53.869857 65.679825 21.139944 32.279914 37.059901 66.949822 46.839875 104.389721A369.239016 369.239016 0 0 1 861.999067 641.911019c1.149997 11.31997 2.069994 22.769939 1.679995 34.129909-0.379999 12.229967-0.999997 24.499935-2.509993 36.699902a352.139061 352.139061 0 0 1-8.759977 47.389873C838.999128 810.660569 815.99919 856.190447 782.469279 896.39034c-32.679913 39.209895-71.799809 70.169813-117.809686 92.329754a350.589065 350.589065 0 0 1-98.519737 30.449919c-12.999965 1.999995-25.999931 3.74999-39.239896 3.62999-2.619993 0-5.239986 0.459999-7.859979 0.639998-3.209991 0.199999-6.489983 0.829998-9.619974 0.409999-12.169968-1.669996-24.489935-0.999997-36.719902-2.589993-15.399959-1.999995-30.689918-4.289989-45.719878-8.089978a354.319055 354.319055 0 0 1-132.319648-64.429828 343.639084 343.639084 0 0 1-89.449761-104.609721c-20.659945-36.929902-33.379911-76.529796-39.939894-118.189685-3.339991-21.099944-5.459985-42.339887-4.909987-63.71983 1.049997-40.719891 8.789977-80.089786 24.559935-117.789686a352.899059 352.899059 0 0 1 57.259847-92.999753c7.949979-9.339975 16.169957-18.459951 24.469935-27.519926a62.999832 62.999832 0 0 0 10.169973-15.249959 25.709931 25.709931 0 0 0 1.699995-19.619948c-6.109984-18.81995-7.999979-38.279898-9.519974-57.809846-0.449999-5.739985-0.999997-6.489983-6.359983-7.839979-1.999995-0.499999-3.999989-0.739998-5.999984-1.239997-3.149992-0.799998-5.249986-2.709993-5.279986-6.119984 0-4.669988-0.05-9.359975 0.299999-13.999962 0.259999-3.449991 2.249994-5.209986 5.709985-5.509986 1.999995-0.17 4.079989 0.16 6.119984 0.12 3.86999-0.09 6.749982-1.679996 7.999978-5.589985 0.18-0.549999 0.419999-1.109997 0.549999-1.669995 2.509993-10.649972 9.899974-16.939955 19.319948-21.249944 3.69999-1.699995 7.62998-2.919992 11.48997-4.279988 9.709974-3.369991 12.999965-11.699969 8.079978-20.809945a46.229877 46.229877 0 0 0-4.999987-7.159981c-20.999944-25.649932-32.899912-55.289853-36.359903-87.939765a204.719454 204.719454 0 0 1 7.829979-83.309778 260.819305 260.819305 0 0 1 17.739953-43.839883 48.999869 48.999869 0 0 1 11.30997-14.369962 26.649929 26.649929 0 0 1 5.789985-3.90999c8.479977-4.079989 16.319956-1.459996 20.859944 6.739982a36.799902 36.799902 0 0 1 3.239991 9.049976A220.999411 220.999411 0 0 1 341.000456 46.852605a447.458807 447.458807 0 0 0 16.439956 82.43978 420.378879 420.378879 0 0 0 17.699953 46.709876 34.119909 34.119909 0 0 0 1.999995 3.909989c1.739995 2.919992 3.459991 3.60999 6.589982 2.279994 4.569988-1.949995 9.069976-4.079989 13.559964-6.199983 21.699942-10.239973 43.069885-21.069944 63.219831-34.179909a221.559409 221.559409 0 0 0 39.419895-31.999915 41.07989 41.07989 0 0 1 5.239986-4.549988 1.339996 1.339996 0 0 1 2.069995 0.889998 24.389935 24.389935 0 0 1 0.089999 5.189986c-0.759998 9.319975-1.659996 18.61995-2.419993 27.939926-0.259999 3.109992 1.119997 4.299989 4.189989 3.79999a36.489903 36.489903 0 0 0 12.999965-4.999987c8.259978-4.999987 16.209957-10.439972 23.109938-17.319954 9.519975-9.499975 19.269949-18.76995 27.559927-29.429921a41.28989 41.28989 0 0 1 4.749987-5.079987 1.249997 1.249997 0 0 1 1.999995 0.779998 19.859947 19.859947 0 0 1 0.529999 4.319988c0.05 5.839984 0 11.689969 0 17.539954h0.199999c0 6.419983-0.07 12.859966 0 19.289948 0 2.109994 1.859995 2.999992 3.71999 1.899995s3.469991-2.179994 5.169986-3.329991q14.549961-9.809974 29.069923-19.649948c0.719998-0.489999 1.409996-0.999997 2.169994-1.489996 0.999997-0.589998 2.049995-1.369996 3.249991-0.719998s1.119997 1.889995 0.879998 3.049992c-0.589998 2.869992-1.139997 5.739985-1.829995 8.579977l-8.609977 34.909907c-0.629998 2.549993-1.199997 5.129986-1.709996 7.69998a4.429988 4.429988 0 0 0 1.879995 4.609987c1.629996 1.219997 3.339991 2.369994 5.079987 3.449991l17.849952 11.159971a29.389922 29.389922 0 0 0 3.82999 2.119994c3.73999 1.649996 6.119984 0.819998 7.899979-2.819993l3.569991-7.999978c15.829958-31.999915 25.999931-65.749825 31.549915-100.919731 1.799995-11.539969 2.819992-23.199938 4.169989-34.819907a97.839739 97.839739 0 0 1 5.319986-21.229944 23.919936 23.919936 0 0 1 4.299989-7.679979c4.439988-5.129986 9.529975-6.359983 15.689958-3.479991z"
    fill="#E68012" />
  <path
    d="M637.649665 440.561555c-6.819982 0-13.629964-1.259997-21.199943-2.779992-22.209941-4.449988-40.099893-17.239954-54.709855-39.089896-7.759979-11.629969-12.569966-24.329935-17.189954-36.599902-1.319996-3.499991-2.379994-6.779982-3.449991-10.049974-0.669998-2.079994-1.329996-4.159989-2.049994-6.219983a50.349866 50.349866 0 0 1-2.469994-14.99996c-0.499999-14.789961 5.359986-27.219927 17.389954-36.999901 14.659961-11.869968 32.269914-19.529948 52.329861-22.76994 9.699974-1.569996 19.519948-2.539993 28.999922-3.48999l1.999995-0.2a53.559857 53.559857 0 0 1 5.449985-0.279999 82.55978 82.55978 0 0 1 11.749969 0.999997c5.649985 0.799998 11.29997 1.489996 16.999955 2.169995 5.939984 0.709998 11.899968 1.419996 17.809952 2.279993 6.439983 0.949997 12.809966 2.429994 19.139949 3.92999a47.669873 47.669873 0 0 1 15.649959 6.829982 40.349892 40.349892 0 0 1 17.399953 24.739934 90.719758 90.719758 0 0 1 1.999995 29.319922c-1.489996 18.539951-4.779987 34.519908-10.089973 48.859869a83.999776 83.999776 0 0 1-23.789937 34.799908 69.819814 69.819814 0 0 1-31.739915 15.409958 164.449562 164.449562 0 0 1-34.849907 3.99999h-2.259994a23.719937 23.719937 0 0 1-3.049992 0.129999"
    fill="#FFFFFF" />
  <path
    d="M642.749651 277.001992a72.469807 72.469807 0 0 1 10.369973 0.859997c11.549969 1.659996 23.189938 2.779993 34.739907 4.449988 6.339983 0.929998 12.619966 2.429994 18.85995 3.90999a37.939899 37.939899 0 0 1 11.949968 5.339986 30.459919 30.459919 0 0 1 13.199965 18.899949 80.219786 80.219786 0 0 1 1.719995 26.139931c-1.249997 15.769958-3.999989 31.259917-9.489974 46.209876a73.759803 73.759803 0 0 1-20.999944 30.769918 59.88984 59.88984 0 0 1-27.329928 13.209965 155.389586 155.389586 0 0 1-32.819912 3.75999h-2.079995c-1.049997 0.09-2.119994 0.13-3.209991 0.13-6.109984 0-12.709966-1.259997-19.269949-2.589993-21.389943-4.269989-36.639902-17.219954-48.389871-34.859907-7.209981-10.789971-11.739969-22.849939-16.279956-34.879907-1.949995-5.189986-3.489991-10.539972-5.319986-15.779958a40.369892 40.369892 0 0 1-1.909995-12.069968c-0.419999-11.999968 4.529988-21.499943 13.709963-28.939923 13.999963-11.30997 30.09992-17.859952 47.689873-20.699945 10.069973-1.629996 20.269946-2.589993 30.409919-3.60999a42.409887 42.409887 0 0 1 4.469988-0.22m0-19.739947c-2.149994 0-4.289989 0.11-6.419983 0.319999l-2.179994 0.22c-9.579974 0.949997-19.489948 1.929995-29.439921 3.53999-21.769942 3.529991-40.939891 11.879968-56.999848 24.859934-14.369962 11.619969-21.619942 27.159928-20.999944 44.93988a59.699841 59.699841 0 0 0 2.999992 17.869952c0.699998 1.999995 1.339996 3.999989 1.999994 5.999984 1.109997 3.449991 2.219994 6.909982 3.509991 10.289973 4.919987 13.089965 9.909974 26.30993 18.319951 38.889896 15.909958 23.779937 36.419903 38.339898 60.999838 43.259885 8.089978 1.629996 15.419959 2.999992 23.139938 2.999992 1.299997 0 2.589993 0 3.85999-0.12h1.429996a174.879534 174.879534 0 0 0 36.899901-4.179989A79.749787 79.749787 0 0 0 715.999456 428.521588a93.66975 93.66975 0 0 0 26.599929-38.839897c5.629985-15.209959 9.109976-31.999915 10.659972-51.499863a99.879734 99.879734 0 0 0-2.259994-32.499913 49.879867 49.879867 0 0 0-21.579943-30.619918 56.999848 56.999848 0 0 0-18.199951-7.999979l-0.779998-0.18c-6.319983-1.489996-12.839966-2.999992-19.769947-3.999989-5.999984-0.869998-12.079968-1.609996-18.149952-2.329994-5.539985-0.669998-11.08997-1.329996-16.619956-2.119994a90.839758 90.839758 0 0 0-13.189964-1.069997"
    fill="#BB5E1E" />
  <path
    d="M378.770355 440.561555a117.109688 117.109688 0 0 1-18.59995-1.509996c-1.929995-0.319999-3.86999-0.549999-5.819985-0.799997-3.78999-0.469999-7.56998-0.999997-11.26997-1.819996-21.899942-4.999987-38.399898-17.539953-48.999869-37.2699C286.440601 385.001704 283.450609 370.101743 281.000616 356.001781c-1.629996-9.539975-2.919992-18.289951-2.169994-28.689924l-0.08-1.939994a73.849803 73.849803 0 0 1 0.169999-9.579975c1.399996-13.939963 7.699979-24.489935 18.709951-31.389916a86.659769 86.659769 0 0 1 21.569942-9.709974 184.149509 184.149509 0 0 1 51.649862-7.58998c3.219991 0 6.489983 0.09 9.729974 0.259999 14.86996 0.839998 30.699918 2.049995 46.429877 6.779982 11.579969 3.489991 26.519929 8.859976 39.419894 19.609948 13.409964 11.16997 19.059949 25.899931 16.349957 42.589886-4.459988 27.329927-14.91996 51.349863-31.089917 71.39981-13.379964 16.569956-30.999917 26.999928-52.41986 30.939917a112.4497 112.4497 0 0 1-20.539946 1.889995"
    fill="#FFFFFF" />
  <path
    d="M370.920376 277.001992c2.999992 0 6.089984 0.08 9.149976 0.259999 14.84996 0.829998 29.759921 1.999995 44.149882 6.369983 12.999965 3.89999 25.439932 8.999976 35.929904 17.729953 10.329972 8.619977 15.15996 19.709947 12.939966 33.42991-3.999989 24.729934-13.239965 47.209874-28.999923 66.779822-12.059968 14.93996-27.679926 23.999936-46.539876 27.439927a102.919726 102.919726 0 0 1-18.74995 1.719996 105.689718 105.689718 0 0 1-16.999955-1.379997c-5.469985-0.889998-11.06997-1.259997-16.449956-2.499993-18.999949-4.339988-33.239911-14.99996-42.569886-32.319914-6.779982-12.589966-9.609974-26.30993-11.999968-40.149893-1.429996-8.379978-2.779993-16.799955-2.059995-26.379929a104.319722 104.319722 0 0 1 0.07-11.23997c0.999997-10.089973 5.199986-18.419951 14.119962-23.999937a76.349796 76.349796 0 0 1 19.08995-8.599977 173.749537 173.749537 0 0 1 48.899869-7.19998m0-19.739948a194.219482 194.219482 0 0 0-54.439855 7.999979 96.609742 96.609742 0 0 0-23.999936 10.819971c-13.529964 8.479977-21.579942 21.869942-23.279938 38.769897a78.309791 78.309791 0 0 0-0.219999 10.869971v1.759995c-0.749998 11.999968 0.999997 22.51994 2.359994 30.219919 2.419994 14.239962 5.709985 30.729918 13.999962 46.209877 12.049968 22.32994 30.739918 36.529903 55.539852 42.209888a121.749675 121.749675 0 0 0 12.189968 1.999994c1.829995 0.239999 3.66999 0.459999 5.499985 0.749998a125.999664 125.999664 0 0 0 20.179946 1.649996 122.609673 122.609673 0 0 0 22.329941-2.049995c23.809937-4.409988 43.419884-15.999957 58.309844-34.449908 17.269954-21.389943 28.429924-46.999875 33.149912-75.999797 3.259991-19.999947-3.75999-38.419898-19.779947-51.759862-14.249962-11.899968-30.399919-17.729953-42.889886-21.479943-16.749955-4.999987-33.259911-6.299983-48.71987-7.189981q-5.129986-0.279999-10.249973-0.279999"
    fill="#BB5E1E" />
  <path
    d="M325.220498 234.902104s7.39998-18.099952 29.99992-28.799923c0 0-41.39989-97.729739-35.919904-160.519573 0.609998-6.859982-49.349868 63.049832 5.899984 189.309496M700.709497 234.902104s-7.39998-18.099952-29.99992-28.799923c0 0 41.38989-97.729739 35.899904-160.519573-0.589998-6.859982 49.349868 63.049832-5.879984 189.309496"
    fill="#C66318" />
  <path
    d="M507.860011 669.230946A172.999539 172.999539 0 0 1 417.000253 643.521014a26.31993 26.31993 0 1 1 27.639927-44.79988 120.749678 120.749678 0 0 0 133.279644-4.529988A26.31993 26.31993 0 1 1 608.479743 637.001032a172.079541 172.079541 0 0 1-100.629732 32.199914"
    fill="#E1761A" />
</svg>