<svg class="icon" viewBox="0 0 1024 1024" xmlns="http://www.w3.org/2000/svg" width="128"
  height="128">
  <path
    d="M108.544 121.6512h809.7792c54.6816 0 98.9184 44.2368 98.9184 98.9184v593.92c0 54.6816-44.2368 98.9184-98.9184 98.9184H108.544c-54.6816 0-98.9184-44.2368-98.9184-98.9184v-593.92c0-54.4768 44.4416-98.9184 98.9184-98.9184z"
    fill="#702C90" />
  <path
    d="M634.2656 773.12H277.2992v-35.0208L387.072 722.944v-37.2736L187.5968 334.848l-102.6048-11.6736-15.1552-39.7312 371.9168 5.7344v33.792l-110.7968 14.1312 154.0096 202.9568 160.9728-143.5648-113.0496-2.2528v-32.5632h299.6224l-14.1312 31.3344h-78.0288L520.192 584.2944v144.5888h114.0736v44.2368zM783.5648 779.0592l-65.3312-16.384 15.1552-55.9104 67.584 20.8896-17.408 51.4048zM819.6096 680.96l-57.1392-16.1792 70.0416-265.8304 140.9024 47.7184z"
    fill="#FFFFFF" />
</svg>