<svg class="icon" viewBox="0 0 1024 1024" version="1.1" xmlns="http://www.w3.org/2000/svg" width="200" height="200">
  <path
    d="M606.8224 443.8016a63.0784 63.0784 0 0 1 67.1232-14.7968 7.424 7.424 0 0 0 2.048 0.8192 14.6432 14.6432 0 0 0 14.5408-3.6864 14.0288 14.0288 0 0 0 3.5328-6.144 14.336 14.336 0 0 0-3.5328-14.7456l-129.536-130.304-107.0592 107.52a14.6944 14.6944 0 0 1-24.4736-14.6432 12.8 12.8 0 0 1 0.8192-2.0992 64.1024 64.1024 0 0 0-25.2928-75.7248 63.3344 63.3344 0 0 0-79.1552 8.3456 64.256 64.256 0 0 0-9.0112 79.5136 63.4368 63.4368 0 0 0 75.264 26.112 7.168 7.168 0 0 1 3.1744-1.28h0.768a14.4896 14.4896 0 0 1 15.9232 7.424 14.7456 14.7456 0 0 1-2.6624 17.4592L303.872 533.504l124.2624 124.9792a14.7968 14.7968 0 0 1 2.3552 18.0224 14.592 14.592 0 0 1-16.8448 6.5536 8.5504 8.5504 0 0 1-2.0992-0.8192 63.4368 63.4368 0 0 0-75.4688 25.6 64.1536 64.1536 0 0 0 8.2944 79.5648 63.3856 63.3856 0 0 0 79.104 9.1136 64.1536 64.1536 0 0 0 25.9072-75.6736 7.3216 7.3216 0 0 1-1.2288-3.2256v-0.768a14.7968 14.7968 0 0 1 7.424-16.0256 14.592 14.592 0 0 1 17.3568 2.6624l82.5856 83.0976 257.0752-258.56-77.312-77.7728a14.0288 14.0288 0 0 0-14.6944-3.5328 13.1584 13.1584 0 0 0-6.0416 3.5328 14.7456 14.7456 0 0 0-4.0448 13.312v0.8192a7.7824 7.7824 0 0 0 1.2288 3.1744A64.1024 64.1024 0 0 1 686.08 542.72a63.3856 63.3856 0 0 1-78.8992-8.5504 64.256 64.256 0 0 1 0-90.4704"
    p-id="17043"></path>
  <path
    d="M306.8928 202.2912a47.2064 47.2064 0 1 1 43.8272-44.032 47.0528 47.0528 0 0 1-43.8272 44.032m602.2144 15.36L564.1216 17.2032a104.3968 104.3968 0 0 0-104.2944 0L357.2224 76.8a93.8496 93.8496 0 0 0-53.8112-16.64 95.0784 95.0784 0 0 0-20.48 187.648h0.4608l4.096 0.8192h1.1264l3.4304 0.4608H296.3968c2.5088 0 5.12 0.3072 7.5264 0.3072A94.72 94.72 0 0 0 398.336 155.2384v-5.2736a3.8912 3.8912 0 0 1 0-0.768l102.8608-59.8528a21.5552 21.5552 0 0 1 21.6064 0l344.8832 200.2432a21.8112 21.8112 0 0 1 10.8032 18.7904v400.5376a21.76 21.76 0 0 1-10.8032 18.7904l-5.888 3.4304a22.1184 22.1184 0 0 0-7.9872 30.1056l19.456 33.9456a21.9136 21.9136 0 0 0 29.952 8.0896l5.888-3.4304a105.4208 105.4208 0 0 0 52.1728-90.88V308.3776a105.728 105.728 0 0 0-52.1728-90.8288"></path>
  <path
    d="M723.0976 909.3632a47.2064 47.2064 0 1 1 43.8272-44.0832 47.104 47.104 0 0 1-43.8272 44.0832m36.4032-133.4272l-1.7408-0.8192-1.3824-0.5632-3.7376-1.4336h-0.4096a94.464 94.464 0 0 0-126.7712 89.2928v5.9904l-102.9632 59.8016a21.7088 21.7088 0 0 1-21.6064 0l-344.576-200.448a21.9136 21.9136 0 0 1-10.8032-18.8416V308.4288a21.9136 21.9136 0 0 1 10.8032-18.8416l21.248-12.3392a22.0672 22.0672 0 0 0 7.9872-30.0544l-19.5072-33.9968a21.8112 21.8112 0 0 0-29.9008-8.0384l-21.248 12.3392a105.4208 105.4208 0 0 0-52.1728 90.88v400.64a105.6768 105.6768 0 0 0 52.1728 90.8288l344.9344 200.2944a104.0384 104.0384 0 0 0 52.1728 14.0288 104.1408 104.1408 0 0 0 52.1216-14.0288l102.4-59.5456a93.9008 93.9008 0 0 0 53.76 16.64 95.0784 95.0784 0 0 0 39.0656-181.2992"></path>
</svg>