<svg class="icon" viewBox="0 0 1024 1024" xmlns="http://www.w3.org/2000/svg" width="200"
  height="200">
  <path
    d="M0 0m195.047619 0l633.904762 0q195.047619 0 195.047619 195.047619l0 633.904762q0 195.047619-195.047619 195.047619l-633.904762 0q-195.047619 0-195.047619-195.047619l0-633.904762q0-195.047619 195.047619-195.047619Z"
    fill="#3AD782" />

  <path
    d="M750.933333 404.48l78.506667-135.68c6.826667-13.226667 1.706667-29.44-11.093333-36.266667a27.178667 27.178667 0 0 0-35.413334 9.386667l-80.213333 138.24a489.088 489.088 0 0 0-381.44 0L241.066667 241.92a27.434667 27.434667 0 0 0-37.12-8.533333c-11.946667 7.68-15.786667 23.04-9.386667 35.413333L273.066667 404.48A459.946667 459.946667 0 0 0 42.666667 768h938.666666a459.946667 459.946667 0 0 0-230.4-363.52zM298.666667 650.666667a53.333333 53.333333 0 1 1 0-106.666667 53.333333 53.333333 0 0 1 0 106.666667z m426.666666 0a53.333333 53.333333 0 1 1 0-106.666667 53.333333 53.333333 0 0 1 0 106.666667z"
    fill="#FFFFFF" />
</svg>