<svg class="icon" viewBox="0 0 1066 1024" xmlns="http://www.w3.org/2000/svg" width="200"
  height="200">
  <path
    d="M803.712 112a120.021333 120.021333 0 0 1 120.021333 120.021333v560a120.021333 120.021333 0 0 1-120.021333 120.021334H243.712a120.021333 120.021333 0 0 1-120.021333-120.021334V232.021333a120.021333 120.021333 0 0 1 120.021333-120.021333h560z"
    fill="#FFFFFF" />
  <path
    d="M803.712 112a120.021333 120.021333 0 0 1 120.021333 120.021333v560a120.021333 120.021333 0 0 1-120.021333 120.021334H243.712a120.021333 120.021333 0 0 1-120.021333-120.021334V232.021333a120.021333 120.021333 0 0 1 120.021333-120.021333h560z m0 59.989333H243.712c-33.152 0-59.989333 26.88-59.989333 60.032v560c0 33.152 26.88 59.989333 59.989333 59.989334h560c33.152 0 60.032-26.88 60.032-59.989334V232.021333c0-33.152-26.88-60.032-60.032-60.032z"
    fill="#33AF8C" />
  <path
    d="M713.813333 276.010667L414.549333 340.394667v55.765333h-0.213333v210.730667a64.256 64.256 0 0 0-37.674667-12.288 64.682667 64.682667 0 0 0 0 129.322666c35.669333 0 78.634667-28.928 78.634667-64.64 0-3.285333-0.426667-6.442667-0.938667-9.642666h0.938667v-237.226667l217.386667-52.053333v199.125333a64.256 64.256 0 0 0-37.674667-12.288 64.682667 64.682667 0 0 0 0 129.365333c35.712 0 78.677333-29.013333 78.677333-64.682666 0-3.285333-0.469333-6.4-0.938666-9.642667h0.938666V276.053333h0.042667z"
    fill="#33AF8C" />
</svg>