<svg class="icon" viewBox="0 0 1024 1024" xmlns="http://www.w3.org/2000/svg" width="200"
  height="200">
  <path
    d="M590.222222 73.955556L859.022222 342.254933V876.088889c0 37.700267-30.5664 68.266667-68.266666 68.266667H233.244444c-37.700267 0-68.266667-30.5664-68.266666-68.266667V142.222222c0-37.700267 30.5664-68.266667 68.266666-68.266666h356.977778z m-11.764622 28.444444H233.244444a39.822222 39.822222 0 0 0-39.799466 38.456889L193.422222 142.222222v733.866667a39.822222 39.822222 0 0 0 38.456889 39.799467L233.244444 915.911111h557.511112a39.822222 39.822222 0 0 0 39.799466-38.456889L830.577778 876.088889V354.053689L578.4576 102.4z"
    fill="#448AFF" />
  <path
    d="M854.755556 370.648178h-215.1424c-45.528178 0-82.551467-36.431644-83.5072-81.737956l-0.017067-1.792V73.955556h28.444444v213.162666c0 29.895111 23.819378 54.232178 53.515378 55.062756l1.564445 0.022755h215.1424v28.444445z"
    fill="#448AFF" />
  <path
    d="M56.888889 489.244444m28.444444 0l853.333334 0q28.444444 0 28.444444 28.444445l0 284.444444q0 28.444444-28.444444 28.444445l-853.333334 0q-28.444444 0-28.444444-28.444445l0-284.444444q0-28.444444 28.444444-28.444445Z"
    fill="#448AFF" />
  <path
    d="M409.440711 756.622222v-38.4h-77.824v-40.448h63.749689v-38.4H331.611022v-35.328h75.013689v-38.144h-120.832V756.622222zM477.0304 756.622222l16.384-37.12c4.346311-9.984 8.704-19.968 13.050311-31.744h1.024c5.12 11.776 9.477689 21.76 14.085689 31.744L539.232711 756.622222h50.949689l-52.48-96 49.152-94.72h-48.384l-13.824 34.304a503.443911 503.443911 0 0 0-12.288 31.232h-1.024c-5.376-12.288-9.472-22.272-13.824-31.232l-15.36-34.304h-50.949689l49.413689 92.672L428.3904 756.622222h48.64zM738.912711 756.622222v-38.4h-77.824v-40.448h63.749689v-38.4h-63.749689v-35.328h75.013689v-38.144h-120.832V756.622222z"
    fill="#FFFFFF" />
</svg>