<svg class="icon" viewBox="0 0 1024 1024" xmlns="http://www.w3.org/2000/svg" width="200"
  height="200">
  <path
    d="M127.921872 233.342828H852.118006c24.16765 0 43.960122 19.792472 43.960122 43.960122v522.104578c0 24.16765-19.792472 43.960122-43.960122 43.960122H172.090336c-24.16765 0-43.960122-19.792472-43.960122-43.960122L127.921872 233.342828z"
    fill="#FFB300" />
  <path
    d="M156.4647 180.63235h312.721058c15.625636 0 28.334486 13.125534 28.334486 29.376195V233.342828H127.921872v-23.334283c0-16.250661 12.917192-29.376195 28.542828-29.376195z"
    fill="#FFA000" />
  <path d="M361.889725 258.343845h348.347508v535.855138H312.512716V303.137335z" fill="#FFFFFF" />
  <path
    d="M170.631943 372.723499h282.719837l59.7941-47.918616H852.118006c23.542625 0 42.710071 19.792472 42.710071 43.960122v430.642523c0 24.16765-19.167447 43.960122-42.710071 43.960122H170.631943c-23.542625 0-42.710071-19.792472-42.710071-43.960122V416.683622c0-24.16765 19.375788-43.960122 42.710071-43.960123z"
    fill="#FFD54F" />
  <path d="M361.473042 303.76236l-48.960326-0.625025 48.960326-44.79349z" fill="#BDBDBD" />
</svg>