<svg class="icon" viewBox="0 0 1024 1024" xmlns="http://www.w3.org/2000/svg" width="200"
  height="200">
  <path d="M759.725253 0H134.464646v1024h817.131314V191.870707L759.725253 0z" fill="#F55A23" />
  <path d="M72.40404 708.525253h687.838384v258.585858H72.40404z" fill="#F55A23" />
  <path d="M82.747475 718.868687h667.151515v237.89899H82.747475z" fill="#FFFFFF" />
  <path d="M755.070707 5.171717l191.353535 191.353536h-191.353535V5.171717z" fill="#FFFFFF" />
  <path
    d="M529.945859 910.222222v-59.112727h60.715959v-21.048889H529.945859v-42.770101h66.456565V765.414141H504.035556v144.808081zM387.878788 787.290505v101.055354h24.307071c29.116768 0 45.149091-17.73899 45.14909-50.786263s-16.239192-50.269091-45.14909-50.269091zM362.020202 765.414141h52.699798c43.235556 0 68.835556 26.168889 68.835556 72.042021S458.05899 910.222222 414.72 910.222222H362.020202z m-98.262626 21.152324v54.871919h23.479596c18.566465 0 29.427071-10.033131 29.42707-27.61697s-10.757172-27.306667-29.323636-27.306667zM237.89899 765.414141h56.32c28.806465 0 48.769293 19.549091 48.769293 48.45899s-20.686869 48.45899-49.855354 48.45899H263.757576V910.222222h-25.858586z"
    fill="#F55A23" />
  <path
    d="M694.251313 475.79798a118.48404 118.48404 0 0 0-32.271515 2.999596 90.815354 90.815354 0 0 0 37.236364 11.946666 46.545455 46.545455 0 0 0 24.824242-2.999596c0-4.447677-5.171717-11.946667-29.789091-11.946666zM528.08404 408.565657l-1.137777 2.378989-1.189495-1.189494c-10.343434 27.203232-21.824646 54.354747-34.443637 80.420202l2.275556-1.189495V491.313131a669.168485 669.168485 0 0 1 78.092929-23.634747l-1.08606-1.189495H574.060606A355.607273 355.607273 0 0 1 528.08404 408.565657z m-5.171717-175.838384h-3.671919a7.86101 7.86101 0 0 0-5.171717 1.189495A93.556364 93.556364 0 0 0 521.774545 294.787879a96.55596 96.55596 0 0 0 1.241213-62.060606zM356.848485 589.575758l3.413333-1.086061A72.817778 72.817778 0 0 0 398.222222 558.545455a89.729293 89.729293 0 0 0-41.373737 31.030303z m338.488889-67.232324a151.58303 151.58303 0 0 1-88.229495-36.20202A848.937374 848.937374 0 0 0 465.454545 531.704242C428.321616 597.436768 393.774545 630.949495 363.985455 630.949495a31.030303 31.030303 0 0 1-17.894142-4.809697 35.167677 35.167677 0 0 1-20.273131-32.271515c0-10.757172 2.37899-40.59798 115.587879-89.625859a850.747475 850.747475 0 0 0 63.198383-148.221414c-14.273939-28.70303-45.304242-99.193535-23.634747-135.033535A37.960404 37.960404 0 0 1 517.688889 201.69697a39.511919 39.511919 0 0 1 31.030303 15.515151c15.515152 21.514343 14.273939 66.92202-5.947475 133.895758a360.106667 360.106667 0 0 0 73.903839 95.62505 403.393939 403.393939 0 0 1 75.093333-8.378182c56.061414 1.241212 64.387879 27.668687 63.301818 43.132122 0 40.856566-39.511919 40.856566-59.733333 40.856565z"
    fill="#FFFFFF" />
</svg>