<svg class="icon" viewBox="0 0 1024 1024" xmlns="http://www.w3.org/2000/svg" width="200"
  height="200">
  <path
    d="M512 0c282.76736 0 512 229.23264 512 512 0 282.7776-229.23264 512-512 512S0 794.76736 0 512 229.23264 0 512 0z"
    fill="#2EA9D3" />
  <path
    d="M149.42208 339.36384l523.56096-140.288c16.51712-4.43392 33.4848 5.26336 37.86752 21.64736l103.35232 385.71008c4.39296 16.39424-5.43744 33.25952-21.97504 37.69344l-523.55072 140.288c-16.52736 4.43392-33.4848-5.26336-37.86752-21.64736L127.45728 377.04704c-4.39296-16.384 5.44768-33.25952 21.9648-37.6832z m86.48704-1.31072h542.03392c17.1008 0 30.96576 13.75232 30.96576 30.72v399.31904c0 16.95744-13.86496 30.72-30.96576 30.72H235.90912c-17.11104 0-30.96576-13.76256-30.96576-30.72V368.77312c0-16.96768 13.85472-30.72 30.96576-30.72z"
    fill="#2998BE" />
  <path
    d="M808.9088 632.76032v-46.05952l-66.62144-248.64768H235.90912c-17.11104 0-30.96576 13.75232-30.96576 30.72V666.2144l25.86624 96.55296c4.39296 16.39424 21.34016 26.08128 37.86752 21.64736l523.55072-140.27776a30.8224 30.8224 0 0 0 16.68096-11.37664z"
    fill="#268BAE" />
  <path
    d="M159.66208 318.88384l523.56096-140.288c16.51712-4.43392 33.4848 5.26336 37.86752 21.64736l103.35232 385.71008c4.39296 16.39424-5.43744 33.25952-21.97504 37.69344l-523.55072 140.288c-16.52736 4.43392-33.4848-5.26336-37.86752-21.64736L137.69728 356.56704c-4.39296-16.384 5.44768-33.25952 21.9648-37.6832z"
    fill="#EDEDED" />
  <path
    d="M808.9088 621.06624v-93.07136l-50.8928-189.94176H235.90912c-17.11104 0-30.96576 13.75232-30.96576 30.72v238.73536l36.10624 134.76864c4.39296 16.39424 21.34016 26.08128 37.86752 21.64736l523.55072-140.27776c2.29376-0.60416 4.42368-1.51552 6.44096-2.58048z"
    fill="#D5D5D5" />
  <path
    d="M202.5472 349.55264l458.55744-122.86976a23.7056 23.7056 0 0 1 29.05088 16.73216l85.83168 320.3072a23.71584 23.71584 0 0 1-16.80384 29.02016l-458.5472 122.85952a23.71584 23.71584 0 0 1-29.06112-16.73216l-85.82144-320.3072a23.71584 23.71584 0 0 1 16.7936-29.00992z"
    fill="#4681A0" />
  <path
    d="M715.52 338.05312H245.47328L215.04 346.2144a30.4128 30.4128 0 0 0-10.09664 22.55872v81.38752l66.64192 248.71936a23.71584 23.71584 0 0 0 29.06112 16.73216l458.5472-122.85952a23.72608 23.72608 0 0 0 16.80384-29.02016l-60.47744-225.67936z"
    fill="#3F7490" />
  <path
    d="M256.38912 317.57312h542.03392c17.1008 0 30.96576 13.75232 30.96576 30.72v399.31904c0 16.95744-13.86496 30.72-30.96576 30.72H256.38912c-17.11104 0-30.96576-13.76256-30.96576-30.72V348.29312c0-16.96768 13.85472-30.72 30.96576-30.72z"
    fill="#F6F6F6" />
  <path
    d="M289.88416 358.30784h474.7264a23.71584 23.71584 0 0 1 23.73632 23.68512v331.60192a23.7056 23.7056 0 0 1-23.73632 23.67488h-474.7264a23.7056 23.7056 0 0 1-23.73632-23.67488V381.99296a23.69536 23.69536 0 0 1 23.73632-23.68512z"
    fill="#A3E0F5" />
  <path
    d="M307.2512 624.52736c-14.22336 0-27.94496 1.18784-41.1136 3.20512v85.85216a23.7056 23.7056 0 0 0 23.73632 23.67488H468.8896c1.34144-5.0176 2.24256-10.12736 2.24256-15.38048 0.01024-53.74976-73.3696-97.35168-163.88096-97.35168z"
    fill="#3DB39E" />
  <path
    d="M788.34688 713.59488v-127.488C756.62336 577.9456 721.8176 573.44 685.28128 573.44c-147.46624 0-267.02848 73.35936-267.02848 163.84h346.35776a23.72608 23.72608 0 0 0 23.73632-23.68512z"
    fill="#4BC2AD" />
  <path
    d="M266.1376 381.99296v118.62016c5.03808 0.60416 10.12736 1.00352 15.32928 1.00352 70.68672 0 127.98976-57.27232 127.98976-127.92832 0-5.21216-0.4096-10.33216-1.01376-15.38048H289.88416a23.7056 23.7056 0 0 0-23.74656 23.68512z"
    fill="#EFC75E" />
</svg>