<svg class="icon" viewBox="0 0 1024 1024" xmlns="http://www.w3.org/2000/svg" width="200"
  height="200">
  <path
    d="M200 600a40 40 0 1 1 0-80 40 40 0 0 1 0 80z m784 74a40 40 0 0 1-40-40V526.864L782.672 624.24a40 40 0 0 1-60.672-34.24V520c0-44.112-35.888-80-80-80H160c-44.112 0-80 35.888-80 80v344c0 44.112 35.888 80 80 80h482c44.112 0 80-35.888 80-80v-72a40 40 0 0 1 60.44-34.384L944 853.68v-19.68a40 40 0 1 1 80 0v90a40 40 0 0 1-60.44 34.384L802 862.32v1.68c0 88.224-71.776 160-160 160H160c-88.224 0-160-71.776-160-160V520c0-51.184 24.192-96.8 61.704-126.104C23.88 360.344 0 311.416 0 257 0 156.096 82.096 74 183 74c87.864 0 161.456 62.256 179.016 144.96C362.576 98.128 461.04 0 582 0c121.312 0 220 98.688 220 220 0 65.576-28.848 124.528-74.504 164.864 44.504 28.256 74.192 77.84 74.496 134.272l161.336-97.384A40 40 0 0 1 1024 456v178a40 40 0 0 1-40 40zM183 360c56.8 0 103-46.208 103-103 0-56.8-46.208-103-103-103-56.8 0-103 46.208-103 103C80 313.8 126.208 360 183 360z m151.184 0h78.24a219.296 219.296 0 0 1-46.48-98.504A181.912 181.912 0 0 1 334.184 360z m247.816 0c77.2 0 140-62.8 140-140S659.2 80 582 80s-140 62.8-140 140S504.8 360 582 360z"
    fill="#4A90E2" />
</svg>