<svg class="icon" viewBox="0 0 1024 1024" xmlns="http://www.w3.org/2000/svg" width="200"
  height="200">
  <path
    d="M980.949333 64H298.538667a42.666667 42.666667 0 0 0-42.666667 42.624v181.248l383.872 111.957333 383.829333-111.957333V106.666667a42.666667 42.666667 0 0 0-42.624-42.666667z"
    fill="#41A5EE" />
  <path d="M1023.573333 287.872H255.914667v223.914667l383.829333 111.957333 383.829333-111.957333z"
    fill="#2B7CD3" />
  <path
    d="M1023.573333 511.786667H255.914667v223.914666l383.829333 111.957334 383.829333-111.957334z"
    fill="#185ABD" />
  <path
    d="M1023.573333 735.701333H255.914667v181.290667a42.666667 42.666667 0 0 0 42.624 42.624H980.906667a42.666667 42.666667 0 0 0 42.666666-42.666667v-181.248z"
    fill="#103F91" />
  <path
    d="M533.12 223.914667H255.914667v607.744h277.205333a42.752 42.752 0 0 0 42.666667-42.666667V266.581333a42.752 42.752 0 0 0-42.666667-42.666666z"
    fill="#000000" opacity=".1" />
  <path
    d="M501.162667 255.914667H255.914667v607.744h245.205333a42.752 42.752 0 0 0 42.666667-42.666667V298.538667a42.752 42.752 0 0 0-42.666667-42.666667z"
    fill="#000000" opacity=".2" />
  <path
    d="M501.162667 255.914667H255.914667v543.744h245.205333a42.752 42.752 0 0 0 42.666667-42.624V298.538667a42.752 42.752 0 0 0-42.666667-42.666667z"
    fill="#000000" opacity=".2" />
  <path
    d="M469.162667 255.914667H255.914667v543.744h213.248a42.752 42.752 0 0 0 42.666666-42.624V298.538667a42.752 42.752 0 0 0-42.666666-42.666667z"
    fill="#000000" opacity=".2" />
  <path
    d="M42.666667 255.914667h426.496a42.666667 42.666667 0 0 1 42.666666 42.624v426.496a42.666667 42.666667 0 0 1-42.666666 42.666666H42.624a42.666667 42.666667 0 0 1-42.624-42.666666V298.538667a42.666667 42.666667 0 0 1 42.666667-42.666667z"
    fill="#185ABD" />
  <path
    d="M382.250667 671.744h-57.6L257.493333 450.986667l-70.4 220.714666H129.578667l-64-319.872h57.6l44.8 223.914667L235.093333 358.272h48l64 217.514667 44.757334-223.914667h54.357333z"
    fill="#FFFFFF" />
</svg>