<svg id="Dweb_Browser" data-name="Dweb Browser" xmlns="http://www.w3.org/2000/svg"
  xmlns:xlink="http://www.w3.org/1999/xlink" viewBox="0 0 889.58 814.15">
  <defs>
    <linearGradient id="lg_43" x1="663.16" y1="575.39" x2="349.88" y2="32.78"
      gradientUnits="userSpaceOnUse">
      <stop offset="0" stop-color="#0387ff" />
      <stop offset=".27" stop-color="#048aff" />
      <stop offset=".45" stop-color="#0893ff" />
      <stop offset=".6" stop-color="#0ea2ff" />
      <stop offset=".74" stop-color="#18b7ff" />
      <stop offset=".87" stop-color="#24d3fe" />
      <stop offset=".98" stop-color="#32f4fe" />
      <stop offset="1" stop-color="#34f9fe" />
    </linearGradient>
    <linearGradient id="lg_43-2" x1="716.07" y1="597.35" x2="398.56" y2="47.4"
      xlink:href="#lg_43" />
    <linearGradient id="lg_43-3" x1="750.56" y1="580.7" x2="451.68" y2="63.01"
      xlink:href="#lg_43" />
    <linearGradient id="lg_43-4" x1="682.32" y1="587.62" x2="445.56" y2="177.54"
      xlink:href="#lg_43" />
    <linearGradient id="lg_54" x1="434.05" y1="763.27" x2="135.11" y2="245.5"
      gradientUnits="userSpaceOnUse">
      <stop offset="0" stop-color="#0c44b4" />
      <stop offset=".29" stop-color="#116acc" />
      <stop offset=".58" stop-color="#158ae0" />
      <stop offset=".83" stop-color="#189dec" />
      <stop offset="1" stop-color="#19a4f0" />
    </linearGradient>
    <linearGradient id="lg_54-2" x1="441.28" y1="648.82" x2="204.45" y2="238.61"
      xlink:href="#lg_54" />
    <linearGradient id="lg_54-3" x1="537.19" y1="791.88" x2="223.83" y2="249.12"
      xlink:href="#lg_54" />
    <linearGradient id="lg_54-4" x1="487.13" y1="778.84" x2="169.57" y2="228.81"
      xlink:href="#lg_54" />
    <linearGradient id="lg_138" x1="12.32" y1="571.77" x2="760.47" y2="451.4"
      gradientUnits="userSpaceOnUse">
      <stop offset=".04" stop-color="#0989e6" />
      <stop offset="1" stop-color="#2ce9fd" />
    </linearGradient>
    <linearGradient id="lg_128" x1="720.73" y1="116.67" x2="716.8" y2="436.62"
      gradientUnits="userSpaceOnUse">
      <stop offset="0" stop-color="#1ec7ff" />
      <stop offset=".64" stop-color="#34f1ff" />
    </linearGradient>
    <clipPath id="clip-path">
      <path class="cls-1"
        d="M764.81 186.19S822.89 394.06 522.26 526L240.77 361.71S-123.6 166.64 386.51 12.34c228.13-69 378.3 173.85 378.3 173.85Z" />
    </clipPath>
    <clipPath id="clip-path-2">
      <path class="cls-1"
        d="M576.91 690.35 749.49 596l43.19 54.3s-126.47 192.9-396.88 160S61 637.36 61 637.36 50.93 330 76.8 296C174 168.33 349.67 135.83 362.58 162.14S254.7 243.22 238.27 340.27c-16.1 95 1.91 213.51 4.16 222 5.46 20.52-136.33-33-159-50-36.73-27.53 33 155.26 36.4 156.8 54.9 25 141.17 52.92 227.62 35.22L365 719.53l81.92 8.92 97.87-15.71Z" />
    </clipPath>
    <style>.cls-1{fill:none}</style>
  </defs>
  <g style="clip-path:url(#clip-path)">
    <path
      d="M808.93 326.22A375.06 375.06 0 0 0 443.82 36.88a377.34 377.34 0 0 0-168.56 39.76 372.83 372.83 0 0 0-74 48.77 377.41 377.41 0 0 0-62.18 67.22l-.12.17a7 7 0 0 0 11.31 8.2l.07-.09a363.16 363.16 0 0 1 59.88-64.74 360.21 360.21 0 0 1 150.34-75.65 362.11 362.11 0 0 1 359.22 118.6 360.21 360.21 0 0 1 75.55 150.29 362.35 362.35 0 0 1 2.51 154.83 7 7 0 0 0 5.46 8.23 6.49 6.49 0 0 0 1.39.14 7 7 0 0 0 6.84-5.6 376.67 376.67 0 0 0-2.6-160.79Z"
      style="fill:url(#lg_43)" />
    <path
      d="M712.07 207.48A338.87 338.87 0 0 0 442.58 74.3a337.48 337.48 0 0 0-205.42 69.57l-.13.1a7 7 0 0 0 8.5 11.08l.12-.1A324.93 324.93 0 0 1 722.5 578.56a7 7 0 0 0 6 10.54 7 7 0 0 0 6-3.43 338.43 338.43 0 0 0-22.45-378.19Z"
      style="fill:url(#lg_43-2)" />
    <path
      d="M742.54 476.49a306.17 306.17 0 0 0-389.71-356.14l-.23.07a7 7 0 0 0-4.93 6.65 7.38 7.38 0 0 0 .31 2.08 7 7 0 0 0 6.67 4.93 7.19 7.19 0 0 0 2.06-.31h.22a292.44 292.44 0 0 1 284.39 494.07 7 7 0 0 0-.38 9.87 7 7 0 0 0 9.87.38 307.58 307.58 0 0 0 91.73-161.6Z"
      style="fill:url(#lg_43-3)" />
    <path
      d="M687.05 530.87a272.7 272.7 0 0 0 26.93-118 268.11 268.11 0 0 0-15.6-90.23A270.07 270.07 0 0 0 499.74 148.5l-.22-.05a7.24 7.24 0 0 0-1.46-.15 7 7 0 0 0-6.82 5.53 6.88 6.88 0 0 0-.15 1.5 7 7 0 0 0 5.44 6.75h.32A256.66 256.66 0 0 1 700 412.88a258.63 258.63 0 0 1-25.53 111.92 256 256 0 0 1-73.84 91.12 258.15 258.15 0 0 1-49.89 30.31 7 7 0 0 0 2.92 13.32 6.91 6.91 0 0 0 2.93-.64 271.81 271.81 0 0 0 96.8-75.1 269 269 0 0 0 33.66-52.94Z"
      style="fill:url(#lg_43-4)" />
  </g>
  <g style="clip-path:url(#clip-path-2)">
    <path
      d="M442.69 719.53a306.19 306.19 0 0 1-280.31-429.64A307.52 307.52 0 0 1 235 188.05a6.94 6.94 0 0 1 4.75-1.86 7 7 0 0 1 4.74 12.1 292.32 292.32 0 0 0 284.23 494.3l.21-.07.23-.06a6.45 6.45 0 0 1 2-.31 6.94 6.94 0 0 1 6.67 4.92 7.26 7.26 0 0 1 .31 2.07 7 7 0 0 1-4.92 6.66h-.2l-.25.08a306.53 306.53 0 0 1-90 13.59h-.05Z"
      style="fill:url(#lg_54)" />
    <path
      d="M388.82 678a6.49 6.49 0 0 1-1.45-.15l-.43-.08a270.61 270.61 0 0 1-56.65-510.52 6.82 6.82 0 0 1 2.91-.64 7 7 0 0 1 2.93 13.39 257.77 257.77 0 0 0-91.94 71.23 255.48 255.48 0 0 0-32 50.24 259 259 0 0 0-25.57 112 256.33 256.33 0 0 0 203.22 250.66l.42.09a7 7 0 0 1 5.53 6.87 6.62 6.62 0 0 1-.15 1.41 7 7 0 0 1-6.82 5.5Z"
      style="fill:url(#lg_54-2)" />
    <path
      d="M746.59 622a7 7 0 0 0-9.74 1.59c-.09.11-.16.21-.24.32A361.59 361.59 0 0 1 89.19 340.25a7 7 0 0 0-5.46-8.25 8.08 8.08 0 0 0-1.39-.13 7 7 0 0 0-6.84 5.59 375.31 375.31 0 0 0 367.67 450.36 374.69 374.69 0 0 0 304.77-155.75l.17-.25.07-.1a7 7 0 0 0-1.59-9.74Z"
      style="fill:url(#lg_54-3)" />
    <path
      d="M173.54 618.81A338.82 338.82 0 0 0 443 752h.05a337.35 337.35 0 0 0 205.4-69.58l.28-.21a7 7 0 1 0-8.49-11.09l-.13.1-.17.13a324.94 324.94 0 0 1-476.8-423.75 7 7 0 0 0-2.45-9.57 7 7 0 0 0-9.56 2.46 338.44 338.44 0 0 0 22.36 378.35Z"
      style="fill:url(#lg_54-4)" />
  </g>
  <path
    d="M596.46 634.84c-23 10.74-47.18 20.59-71.94 29.27-84.24 29.51-176.9 42.15-260.92 35.57-84.5-6.62-152.92-32.25-192.66-72.18-26.13-26.24-43.49-55.85-51.59-88a176.92 176.92 0 0 1-4.83-29.73c7.26 28.69 23.76 59.31 56.71 87.64 47.69 41 115.21 65.92 195.25 72.05q19.22 1.47 39 1.47c69.27 0 142.68-13.54 214.61-39.75C608.5 599 682.61 554.31 740.31 498.5a7 7 0 1 0-9.7-10c-56.29 54.45-128.74 98.05-215.33 129.6-83.73 30.52-169.4 43.48-247.74 37.47-77.05-5.9-141.79-29.66-187.2-68.71-24.88-21.39-41.93-45.85-50.7-72.7-7-21.46-8.78-44.58-5.29-68.71.21-1.48.44-3 .67-4.41 1.26 37.05 15.1 88.5 75.72 130.76 45 31.39 106 49.6 176.31 52.67q10.45.45 21.11.45c68.26 0 142.16-14 215.14-40.86 57-21 107.61-47.76 150.38-79.57 37-27.5 68.19-58.78 92.78-93a7 7 0 0 0-11.34-8.15c-23.75 33-54 63.29-89.77 89.93-41.7 31-91.11 57.14-146.88 77.67-78.85 29-158.68 42.7-230.81 39.56-67.67-3-126.09-20.31-168.94-50.18-45.87-32-69.7-72.84-70.85-121.46 8 31.71 30 72.57 87.9 101.53 53.18 26.59 111.39 39.9 174 39.9q63.09 0 132-18a7 7 0 1 0-3.54-13.51c-110.83 29-210.51 22-296.26-20.86-46.09-23-74.76-56.31-83.12-98.87-6.28-32-3.27-62-3.27-62S13.5 403 3.85 454.7c-5.7 30.56-5.07 60.14 1.88 87.91C14.42 577.35 33 609.22 61 637.36c42.1 42.28 113.65 69.36 201.47 76.24q22.33 1.74 45.35 1.74c73.11 0 150.16-13.13 221.28-38.05 25.2-8.83 49.84-18.86 73.23-29.8a7 7 0 1 0-5.91-12.65Z"
    style="fill:url(#lg_138)" />
  <path
    d="M869.44 214.38c-14.2-28.15-35.85-52.28-64.34-73.85-44.69-33.82-96.58-44-103.84-45.24-.56-.11-.86-.15-.86-.15s18.3 15 35.64 40.49c23.46 34.37 31.56 79.63 24.08 128.05-11.07 71.64-72.43 172.46-211.45 240.6a7 7 0 0 0 3.07 13.26 6.88 6.88 0 0 0 3.07-.72c143.85-70.5 207.5-175.89 219.11-251 9.65-62.46-7.47-105.84-24.43-131.94 2.82 2.69 5.64 5.48 8.42 8.38 35.9 37.4 49.29 85.21 39.81 142.11a7 7 0 0 0 5.74 8 6.46 6.46 0 0 0 1.15.1 7 7 0 0 0 6.88-5.84c10.73-64.32-8.28-108.79-30.65-138 19.16 17.41 33.6 37.53 42.94 59.87 12.43 29.71 15.88 63.6 10.27 100.73-3.29 21.79-10.49 44.57-21.4 67.74a7 7 0 1 0 12.63 6c11.49-24.39 19.09-48.48 22.58-71.6 6-39.82 2.21-76.33-11.32-108.51A165 165 0 0 0 815 165.89c18 16.61 32.09 35 42.13 55 16.42 32.64 22 69.67 16.48 110.06-10.95 80.51-69.15 165.78-159.7 233.93a7 7 0 0 0 8.4 11.16C815.76 505.66 876 417 887.39 332.83c5.89-43.33-.15-83.18-17.95-118.45Z"
    style="fill:url(#lg_128)" />
</svg>