<svg class="icon" viewBox="0 0 1090 1024" xmlns="http://www.w3.org/2000/svg" width="200" height="200">
  <style>
    .fill {
      fill: #03a9f4;
    }
  </style>
  <defs>
    <filter id="fgFilter">
      <feColorMatrix type="saturate" values=".6" />
      <feComponentTransfer>
        <feFuncR type="linear" slope="1.4" />
        <feFuncG type="linear" slope="1.4" />
        <feFuncB type="linear" slope="1.4" />
      </feComponentTransfer>
    </filter>
    <filter id="blurFilter" x="0" y="0">
      <feGaussianBlur in="SourceGraphic" stdDeviation="20" />
    </filter>
    <path
      d="M312.860444 312.860444m-312.860444 0a312.860444 312.860444 0 1 0 625.720889 0 312.860444 312.860444 0 1 0-625.720889 0Z"
      id="bg" />
    <path
      d="M594.080627 527.152523m-495.361673 0a495.361673 495.361673 0 1 0 990.723347 0 495.361673 495.361673 0 1 0-990.723347 0Z"
      id="fg" />
    <path
      d="M789.529098 489.965595l0.013386-0.023425 0.013385-0.021752c9.788235-16.238431 15.254588-34.325752 15.254589-52.874876 0-59.676444-53.119163-107.412915-117.751634-107.419607a117.975843 117.975843 0 0 0-60.899556 16.286954c-34.887948 19.352261-56.107503 53.67634-56.107503 91.209621V615.403922c0 19.534641-11.319216 37.667137-30.895687 48.683503a76.62766 76.62766 0 0 1-36.633098 9.348183c-37.719007-0.001673-67.523765-26.557072-67.523764-58.031686 0-9.640993 2.451242-18.880418 7.746928-27.249778l0.016732-0.026771 0.016732-0.026772c7.751948-12.786614 21.736575-23.038327 39.825568-28.390902l0.128837-0.038483 0.123817-0.04685c1.53098-0.588967 2.792575-0.60068 3.572288-0.602353a24.674719 24.674719 0 0 0 17.712523-7.064261 24.576 24.576 0 0 0 7.360418-17.598745c-0.00502-13.77715-11.061542-24.621176-25.067922-24.621177-5.571765 0-11.155242 0.89851-19.119686 3.082039l-0.025098 0.006693-0.025098 0.006693c-28.554876 8.305778-52.295948 25.845961-67.147294 49.625516l-0.015059 0.023425-0.013386 0.025098c-9.759791 16.233412-15.252915 34.34583-15.252915 52.87153C384.836601 675.058614 437.989229 722.823529 502.603294 722.823529c21.42034 0 42.49098-5.315765 61.239216-15.83017 34.909699-19.32549 56.139294-53.686379 56.139294-91.228026V437.045542c0-19.561412 11.320889-37.693908 30.922457-48.683503a76.617621 76.617621 0 0 1 36.608-9.373281c37.342536 0.001673 67.162353 26.570458 67.162353 58.056784 0 9.610876-2.47634 18.878745-7.748601 27.226353l-0.030118 0.04685-0.028444 0.050196c-7.746928 13.235033-21.719843 23.388026-39.740235 28.354092l-0.152262 0.04183-0.147242 0.055215c-1.586196 0.602353-2.869542 0.605699-3.61579 0.6057-13.916026 0-25.036131 10.728575-25.041151 24.622849a24.586039 24.586039 0 0 0 7.360419 17.598746 24.683085 24.683085 0 0 0 17.74264 7.064261h0.003346a68.597961 68.597961 0 0 0 19.138092-3.105464c28.564915-8.334222 52.269176-25.871059 67.11383-49.640575z"
      id="symbol" />
  </defs>
  <clipPath id="clipPath">
    <use href="#fg" />
  </clipPath>
  <mask id="maskPath">
    <use href="#bg" fill="#FFF" />
    <use href="#fg" />
  </mask>
  <use href="#bg" class="fill" mask="url(#maskPath)" />
  <use href="#bg" class="fill" clip-path="url(#clipPath)" filter="url(#blurFilter)" />
  <use href="#fg" class="fill" filter="url(#fgFilter)" fill-opacity=".4" />
  <use href="#symbol" fill="#FFF" fill-opacity=".8" />
</svg>