<svg class="icon" viewBox="0 0 1024 1024" xmlns="http://www.w3.org/2000/svg" width="200" height="200">
  <style>
    .fill {
      fill: #607D8B
    }
  </style>
  <defs>
    <filter id="fgFilter">
      <feColorMatrix type="saturate" values=".6" />
      <feComponentTransfer>
        <feFuncR type="linear" slope="1.4" />
        <feFuncG type="linear" slope="1.4" />
        <feFuncB type="linear" slope="1.4" />
      </feComponentTransfer>
    </filter>
    <filter id="blurFilter" x="0" y="0">
      <feGaussianBlur in="SourceGraphic" stdDeviation="20" />
    </filter>

    <path
      d="M107.284 327.325l510.166-83.516q97.976-16.039 114.015 81.937l52.011 317.72q16.04 97.977-81.936 114.015l-510.167 83.516Q93.398 857.036 77.36 759.06L25.347 441.339q-16.039-97.976 81.937-114.015z"
      id="bg-1" />
    <path
      d="M318.567 72.852l16.796-2.75c71.117-11.64 138.206 36.574 149.847 107.69l18.175 84.691 33.592-5.499-9.777-86.065C511.762 76.61 422.797 12.675 328.49 28.112l-16.796 2.751C217.387 46.298 153.452 135.264 168.89 229.57l18.174 84.692 33.592-5.5-9.778-86.065c-11.64-71.117 36.574-138.206 107.69-149.847z"
      id="bg-2" />
    <path
      d="M722.24 231.462l16.282 4.952c68.946 20.968 107.84 93.856 86.873 162.801l-16.955 67.503c-2.322 9.245 3.018 18.686 12.137 21.46s18.81-2.097 22.029-11.07l23.497-65.514c27.804-91.427-23.772-188.084-115.2-215.888l-16.284-4.951c-91.428-27.806-188.084 23.772-215.888 115.2l-16.955 67.503c-2.322 9.244 3.016 18.686 12.136 21.458 9.12 2.775 18.812-2.096 22.029-11.068l23.498-65.513c20.966-68.946 93.855-107.84 162.8-86.873z"
      id="fg-1" />
    <path
      d="M425.128 346.703l494.592 150.41q94.985 28.886 66.1 123.87l-93.673 308.022q-28.886 94.985-123.87 66.099l-494.592-150.41q-94.985-28.886-66.1-123.87l93.673-308.022q28.886-94.985 123.87-66.1z"
      id="fg-2" />
    <path
      d="M604.3 715.907c33.09.804 63.995-20.367 74.099-53.577 12.146-39.932-10.377-82.149-50.308-94.296-39.93-12.148-82.149 10.376-94.296 50.306-10.103 33.212 3.777 68.007 31.71 85.763l-13.14 43.192c-3.258 10.713 2.785 22.04 13.497 25.299 10.714 3.259 22.04-2.784 25.3-13.498l13.138-43.19z"
      id="symbol" />
  </defs>
  <clipPath id="clipPath">
    <use href="#fg-1" />
    <use href="#fg-2" />
  </clipPath>
  <mask id="maskPath">
    <use href="#bg-1" fill="#FFF" />
    <use href="#bg-2" fill="#FFF" />
    <use href="#fg-1" />
    <use href="#fg-2" />
  </mask>
  <use href="#bg-1" class="fill" mask="url(#maskPath)" />
  <use href="#bg-2" class="fill" mask="url(#maskPath)" />
  <use href="#bg-1" class="fill" clip-path="url(#clipPath)" filter="url(#blurFilter)" />
  <use href="#bg-2" class="fill" clip-path="url(#clipPath)" filter="url(#blurFilter)" />
  <use href="#fg-1" class="fill" filter="url(#fgFilter)" fill-opacity=".4" />
  <use href="#fg-2" class="fill" filter="url(#fgFilter)" fill-opacity=".4" />
  <use href="#symbol" fill="#FFF" fill-opacity=".8" />
</svg>