<svg class="icon" viewBox="0 0 1156 1024" xmlns="http://www.w3.org/2000/svg" width="200" height="200">
  <style>
    .fill {
      fill: rgb(233 30 99)
    }
  </style>
  <defs>
    <filter id="fgFilter">
      <feColorMatrix type="saturate" values=".6" />
      <feComponentTransfer>
        <feFuncR type="linear" slope="1.4" />
        <feFuncG type="linear" slope="1.4" />
        <feFuncB type="linear" slope="1.4" />
      </feComponentTransfer>
    </filter>
    <filter id="blurFilter" x="0" y="0">
      <feGaussianBlur in="SourceGraphic" stdDeviation="20" />
    </filter>
    <path
      d="M0 182.890866m108.055601-28.106102l413.403752-107.529529q108.055601-28.106102 136.161703 79.9495l112.022892 430.678754q28.106102 108.055601-79.9495 136.161703l-413.403751 107.52953q-108.055601 28.106102-136.161703-79.9495l-112.022892-430.678754q-28.106102-108.055601 79.949499-136.161704Z"
      id="bg-1" />
    <path
      d="M1130.245583 29.893782l-101.672673-21.357259a7.975078 7.975078 0 0 0-8.919327 4.548985l-60.961496 136.322791c-2.07671 4.641495 0.663526 10.016698 5.639975 11.061433l72.372237 15.202094a3.190031 3.190031 0 0 1 2.277682 4.373532l-41.703277 97.76967c-1.298343 3.044885 2.327128 5.809047 4.919028 3.748287l133.801072-106.360424c3.170891-2.520125 1.969844-7.595464-1.99377-8.428062l-57.573682-12.093408a3.190031 3.190031 0 0 1-2.121371-4.692536l61.239028-108.365359c2.654106-4.697321-0.023925-10.619614-5.303426-11.729744z"
      id="bg-2" />
    <path
      d="M938.421034 338.99504c1.891688 7.678405 8.512598 13.503402 16.420686 13.503402H1027.190031c71.353022 0 129.196262 57.84324 129.196262 129.196262v413.109034c0 71.353022-57.84324 129.196262-129.196262 129.196262H354.093458c-71.353022 0-129.196262-57.84324-129.196262-129.196262V481.694704c0-71.353022 57.84324-129.196262 129.196262-129.196262h72.348311c7.908087 0 14.528997-5.824997 16.420686-13.503402C458.554218 275.314044 516.04815 228.087227 584.573209 228.087227h212.137071c68.525059 0 126.018991 47.226816 141.710754 110.907813z"
      id="fg" />
    <path
      d="M689.844237 811.862928c67.389408 0 122.018692-54.629283 122.018691-122.018691S757.233645 567.825545 689.844237 567.825545 567.825545 622.454829 567.825545 689.844237s54.629283 122.018692 122.018692 122.018691z m0 55.825546c98.221059 0 177.844237-79.623178 177.844237-177.844237S788.065296 512 689.844237 512 512 591.623178 512 689.844237 591.623178 867.688474 689.844237 867.688474z"
      id="symbol-1" />
    <path
      d="M968.174455 534.330218m-38.280374 0a38.280374 38.280374 0 1 0 76.560748 0 38.280374 38.280374 0 1 0-76.560748 0Z"
      id="symbol-2" />
  </defs>
  <clipPath id="clipPath">
    <use href="#fg" />
  </clipPath>
  <mask id="maskPath">
    <use href="#bg-1" fill="#FFF" />
    <use href="#bg-2" fill="#FFF" />
    <use href="#fg" />
  </mask>
  <use href="#bg-1" class="fill" mask="url(#maskPath)" />
  <use href="#bg-2" class="fill" mask="url(#maskPath)" />
  <use href="#bg-1" class="fill" clip-path="url(#clipPath)" filter="url(#blurFilter)" />
  <use href="#fg" class="fill" filter="url(#fgFilter)" fill-opacity=".4" />
  <use href="#symbol-1" fill="#FFF" fill-opacity=".8" />
  <use href="#symbol-2" fill="#FFF" fill-opacity=".8" />
</svg>