<svg class="icon" viewBox="0 0 1024 1024" version="1.1" xmlns="http://www.w3.org/2000/svg"
  width="128" height="128">
  <path
    d="M288.468 288.812H83.083c-18.922 0-34.231-15.31-34.231-34.06s15.31-34.058 34.23-34.058h205.214c18.921 0 34.23 15.31 34.23 34.059s-15.309 34.059-34.058 34.059z m-8.429 337.147H83.083c-18.922 0-34.231-15.309-34.231-34.058 0-18.75 15.31-34.06 34.23-34.06H280.04c18.922 0 34.23 15.31 34.23 34.06s-15.308 34.058-34.23 34.058z m-40.423-168.918H83.083c-18.922 0-34.231-15.309-34.231-34.23 0-18.922 15.31-34.231 34.23-34.231h156.534c18.921 0 34.23 15.31 34.23 34.23 0 18.922-15.309 34.231-34.23 34.231z m220.35 344.029H83.255c-18.922 0-34.231-15.31-34.231-34.231s15.31-34.059 34.23-34.059h376.712c18.921 0 34.23 15.31 34.23 34.23 0 18.75-15.309 34.06-34.23 34.06z m-39.219-374.991c0-115.766 94.435-210.03 210.545-210.03s210.545 94.092 210.545 210.03-94.436 210.03-210.545 210.03-210.545-94.265-210.545-210.03zM967.75 816.207L820.335 623.723c52.293-49.884 85.147-119.894 85.147-197.472 0-150.684-122.99-273.33-274.19-273.33s-274.19 122.646-274.19 273.33 122.99 273.33 274.19 273.33c48.68 0 94.264-12.9 133.999-35.09l147.932 193.171c6.708 8.773 17.03 13.59 27.178 13.59 7.225 0 14.621-2.237 20.642-7.053 15.31-11.697 18.061-33.199 6.708-47.992zM778.708 424.875c0 81.018-65.71 146.556-146.556 146.556s-146.556-65.71-146.556-146.556 65.71-146.556 146.556-146.556 146.556 65.71 146.556 146.556z"
    fill="#0F62FE" />
</svg>
