<svg class="icon" viewBox="0 0 1090 1024" xmlns="http://www.w3.org/2000/svg" width="200" height="200">
  <style>
    .fill {
      fill: #CDDC39;
    }
  </style>
  <defs>
    <filter id="fgFilter">
      <feColorMatrix type="saturate" values=".6" />
      <feComponentTransfer>
        <feFuncR type="linear" slope="1.4" />
        <feFuncG type="linear" slope="1.4" />
        <feFuncB type="linear" slope="1.4" />
      </feComponentTransfer>
    </filter>
    <filter id="blurFilter" x="0" y="0">
      <feGaussianBlur in="SourceGraphic" stdDeviation="20" />
    </filter>
    <path
      d="M338.300485 359.806139m-338.300485 0a338.300485 338.300485 0 1 0 676.600969 0 338.300485 338.300485 0 1 0-676.600969 0Z"
      id="bg" />
    <path
      d="M481.435502 73.435192c28.428821-96.449551 165.042662-96.449551 193.469829 0 18.164006 61.626934 88.555321 90.783638 144.976233 60.050404 88.300562-48.098223 184.900653 48.501868 136.80243 136.804084-30.73158 56.420911-1.57653 126.810572 60.050403 144.974578 96.449551 28.428821 96.449551 165.042662 0 193.469829-61.626934 18.164006-90.781984 88.555321-60.050403 144.976233 48.098223 88.300562-48.501868 184.900653-136.80243 136.80243-56.420911-30.73158-126.812226-1.57653-144.976233 60.050403-28.427166 96.449551-165.041008 96.449551-193.469829 0-18.164006-61.626934-88.553667-90.781984-144.974578-60.050403-88.302216 48.098223-184.902307-48.501868-136.804084-136.80243 30.733234-56.420911 1.57653-126.812226-60.050404-144.976233-96.449551-28.427166-96.449551-165.041008 0-193.469829 61.626934-18.164006 90.783638-88.553667 60.050404-144.974578-48.098223-88.302216 48.501868-184.902307 136.804084-136.804084 56.420911 30.733234 126.810572 1.57653 144.974578-60.050404z"
      id="fg" />
    <path
      d="M445.259683 387.586481m-42.184168 0a42.184168 42.184168 0 1 0 84.368336 0 42.184168 42.184168 0 1 0-84.368336 0Z"
      id="symbol-1" />
    <path
      d="M716.561784 624.148679m-42.184168 0a42.184168 42.184168 0 1 0 84.368336 0 42.184168 42.184168 0 1 0-84.368336 0Z"
      id="symbol-2" />
    <path
      d="M400.336026 617.751574m35.346438-35.346438l209.587053-209.587054q35.346438-35.346438 70.692876 0l-0.00117-0.001169q35.346438 35.346438 0 70.692876l-209.587053 209.587053q-35.346438 35.346438-70.692876 0l0.00117 0.001169q-35.346438-35.346438 0-70.692875Z"
      id="symbol-3" />
  </defs>
  <clipPath id="clipPath">
    <use href="#fg" />
  </clipPath>
  <mask id="maskPath">
    <use href="#bg" fill="#FFF" />
    <use href="#fg" />
  </mask>
  <use href="#bg" class="fill" mask="url(#maskPath)" />
  <use href="#bg" class="fill" clip-path="url(#clipPath)" filter="url(#blurFilter)" />
  <use href="#fg" class="fill" filter="url(#fgFilter)" fill-opacity=".4" />
  <use href="#symbol-1" fill="#FFF" fill-opacity=".8" />
  <use href="#symbol-2" fill="#FFF" fill-opacity=".8" />
  <use href="#symbol-3" fill="#FFF" fill-opacity=".8" />
</svg>