<svg class="icon" viewBox="0 0 200 200" xmlns="http://www.w3.org/2000/svg" width="200" height="200">
  <path
    d="M172.391 24.1706C175.234 24.6933 175.387 24.8081 175.834 27.575C176.114 29.4239 176.369 31.2727 176.471 33.1344L176.484 35.9268C175.968 49.9373 173.052 63.7554 167.864 76.7803C161.731 92.502 152.768 106.362 140.195 117.8C139.734 118.188 139.381 118.689 139.171 119.255C138.961 119.82 138.901 120.43 138.997 121.025L140.208 133.738C141.228 143.607 137.76 151.691 129.752 157.416C121.158 163.562 112.22 169.249 103.358 175C97.7607 178.634 90.9007 175.331 90.276 168.752C89.5802 161.19 88.9766 153.619 88.4653 146.043C88.2103 142.243 88.2996 142.217 84.6019 141.733C74.7965 140.458 67.1333 135.816 61.8417 127.414C59.2403 123.132 57.6892 118.295 57.3152 113.299C57.1877 111.794 56.5629 111.411 55.1476 111.322C47.2033 110.904 39.2634 110.407 31.3291 109.83C24.7369 109.32 21.3962 102.435 24.9282 96.6587C27.4146 92.604 30.054 88.6513 32.6169 84.6475C35.3711 80.3377 38.1253 76.0152 40.9049 71.7055C45.967 63.8255 53.2477 59.5667 62.6068 59.4902C67.9621 59.452 73.3174 60.3828 78.6727 60.9566C79.6928 61.0713 80.4069 60.9311 81.0954 60.1405C93.5274 46.3697 108.918 37.0488 126.297 30.8137C136.097 27.3001 146.287 24.9881 156.644 23.9283C161.897 23.4183 167.163 23.2142 172.391 24.1833V24.1706ZM43.4933 123.882C45.8395 123.907 47.1401 124.94 47.9944 127.324C51.0801 136.441 57.532 144.028 66.0112 148.58C67.9238 149.625 69.964 150.493 72.0423 151.194C75.8293 152.482 76.6709 156.116 73.8912 158.921L61.4337 171.327C60.0694 172.692 58.5648 173.329 56.6394 172.641C55.7577 172.357 54.9907 171.797 54.4512 171.044C53.9117 170.291 53.6284 169.385 53.643 168.458C53.592 167.183 53.6175 165.908 53.592 164.633C53.5282 162.287 53.5155 162.261 51.3351 162.976L37.4112 167.579C36.0341 168.038 34.657 168.229 33.3182 167.477C31.3546 166.367 30.6151 164.391 31.4056 161.955C32.9357 157.225 34.555 152.494 36.1361 147.777C36.8247 145.711 36.7737 145.66 34.555 145.634C33.2035 145.622 31.8774 145.634 30.513 145.583C29.617 145.59 28.7414 145.316 28.0095 144.799C27.2775 144.282 26.7261 143.549 26.4328 142.702C25.7315 140.917 26.1778 139.348 27.5039 138.01C31.8136 133.7 36.1489 129.416 40.4969 125.118C40.8714 124.701 41.3352 124.372 41.854 124.158C42.3727 123.944 42.9331 123.85 43.4933 123.882ZM129.65 53.2678C120.062 53.1148 111.761 60.0258 111.544 70.8384C111.353 79.8532 119.552 88.0137 128.72 88.0775C131.027 88.1095 133.318 87.686 135.461 86.8314C137.605 85.9768 139.558 84.7077 141.211 83.0969C142.863 81.4861 144.181 79.5652 145.09 77.4442C145.999 75.3232 146.48 73.0438 146.507 70.7364L146.443 69.1043C145.704 60.5103 138.321 53.4209 129.65 53.2678Z"
    fill="#0F62FE" />
</svg>
