<?xml version="1.0" standalone="no"?><!DOCTYPE svg PUBLIC "-//W3C//DTD SVG 1.1//EN" "http://www.w3.org/Graphics/SVG/1.1/DTD/svg11.dtd"><svg t="1678603620198" class="icon" viewBox="0 0 1024 1024" version="1.1" xmlns="http://www.w3.org/2000/svg" p-id="2153" xmlns:xlink="http://www.w3.org/1999/xlink" width="200" height="200"><path d="M661.659152 230.865455a31.030303 31.030303 0 0 0-31.030304-31.030303h-248.242424a31.030303 31.030303 0 0 0-31.030303 31.030303v558.545454a31.030303 31.030303 0 0 0 31.030303 31.030303h248.242424a31.030303 31.030303 0 0 0 31.030304-31.030303v-558.545454z m-31.030304-93.09091a93.090909 93.090909 0 0 1 93.09091 93.09091v558.545454a93.090909 93.090909 0 0 1-93.09091 93.090909h-248.242424a93.090909 93.090909 0 0 1-93.090909-93.090909v-558.545454a93.090909 93.090909 0 0 1 93.090909-93.09091h248.242424zM816.841697 323.956364a31.030303 31.030303 0 0 1 31.030303 31.030303v310.30303a31.030303 31.030303 0 1 1-62.060606 0v-310.30303a31.030303 31.030303 0 0 1 31.030303-31.030303zM940.962909 386.01697a31.030303 31.030303 0 0 1 31.030303 31.030303v186.181818a31.030303 31.030303 0 1 1-62.060606 0v-186.181818a31.030303 31.030303 0 0 1 31.030303-31.030303zM196.204606 323.956364a31.030303 31.030303 0 0 1 31.030303 31.030303v310.30303a31.030303 31.030303 0 1 1-62.060606 0v-310.30303a31.030303 31.030303 0 0 1 31.030303-31.030303zM72.083394 386.01697a31.030303 31.030303 0 0 1 31.030303 31.030303v186.181818a31.030303 31.030303 0 1 1-62.060606 0v-186.181818a31.030303 31.030303 0 0 1 31.030303-31.030303z" fill="#303133" p-id="2154"></path></svg>