<svg xmlns="http://www.w3.org/2000/svg" xmlns:xlink="http://www.w3.org/1999/xlink" fill="none" version="1.1" width="28" height="28" viewBox="0 0 28 28"><defs><clipPath id="master_svg0_37_3884"><rect x="0" y="0" width="28" height="28" rx="0"/></clipPath></defs><g clip-path="url(#master_svg0_37_3884)"><g><path d="M0,0L28,0L28,28L0,28L0,0Z" fill="#FFFFFF" fill-opacity="1"/></g><g><path d="M21.037999365234374,23.135962158203125C21.102499365234376,23.182662158203126,21.115199365234375,23.273462158203124,21.065999365234376,23.335962158203124C21.058899365234375,23.345562158203126,21.050099365234374,23.353662158203125,21.039999365234376,23.359962158203125C19.638499365234374,24.451862158203124,18.007599365234377,25.211562158203126,16.269999365234376,25.581962158203126C14.735699365234375,25.897662158203126,13.152899365234376,25.894262158203126,11.619999365234374,25.571962158203124C8.914789365234375,25.051662158203126,6.505599365234374,23.529662158203124,4.873999365234376,21.309962158203124C3.402785365234375,19.391762158203125,2.598646365234375,17.045362158203126,2.583998108234375,14.627962158203125C2.564409865234375,13.060362158203125,2.865224365234375,11.505252158203126,3.467998365234375,10.058002158203125Q5.481999365234374,5.162002158203125,10.551999365234375,3.560003158203125C12.040059365234375,3.074925758203125,13.611299365234375,2.897996758203125,15.169999365234375,3.040003358203125C17.236199365234377,3.227197158203125,19.205699365234373,4.0016721582031245,20.845999365234373,5.272002158203125Q24.879999365234376,8.366002158203125,25.327999365234376,13.361962158203125C25.450599365234375,14.598462158203125,25.372199365234376,15.846562158203126,25.095999365234373,17.057962158203125C24.804599365234374,18.287262158203127,24.306099365234374,19.457962158203124,23.621999365234377,20.519962158203125C23.588199365234374,20.576562158203124,23.515599365234376,20.596062158203125,23.457999365234375,20.563962158203125L22.529999365234374,19.909962158203125C22.461699365234374,19.855262158203125,22.445299365234376,19.758062158203124,22.491999365234374,19.683962158203126C23.406599365234374,18.177962158203123,23.916499365234376,16.461162158203123,23.971999365234375,14.699962158203125C24.015899365234375,13.130062158203126,23.691199365234375,11.571742158203126,23.023999365234374,10.150002158203126Q21.451999365234375,6.7180021582031255,17.803999365234375,5.150002158203125C16.506599365234376,4.595882158203125,15.101499365234375,4.339602158203125,13.691999365234375,4.400002158203125C12.319889365234374,4.456692158203125,10.973479365234375,4.790742158203125,9.733999365234375,5.382002158203125C7.662899365234375,6.328042158203125,5.993609365234375,7.976782158203125,5.021999365234375,10.036002158203125C4.3340993652343744,11.444612158203125,3.991319365234375,12.996662158203126,4.021999365234375,14.563962158203125Q4.083999365234375,18.203962158203126,6.575999365234376,21.067962158203127C7.825989365234375,22.493562158203126,9.482049365234374,23.502662158203126,11.321999365234374,23.959962158203126Q15.891999365234375,25.159962158203125,19.861999365234375,22.493962158203125C19.977199365234377,22.417562158203125,20.128699365234375,22.424862158203126,20.235999365234374,22.511962158203126L21.037999365234374,23.135962158203125Z" fill="#F6854A" fill-opacity="1"/></g><g><path d="M15.5600235546875,16.3579966796875C14.961903554687499,16.0601866796875,14.3240335546875,15.8500366796875,13.6660235546875,15.7339966796875Q12.2920235546875,15.4519966796875,10.9160235546875,15.1839966796875C9.990713554687499,15.0036766796875,9.1178235546875,14.617476679687499,8.3620265546875,14.0539966796875Q6.9420255546875005,12.9999966796875,7.7260265546875,11.3259966796875Q8.6520235546875,9.3559996796875,10.8980235546875,8.8919996796875C11.9371735546875,8.6646949796875,13.001223554687499,8.5719344796875,14.0640235546875,8.6159995796875C15.9232235546875,8.7235836796875,17.7635435546875,9.0470916796875,19.5480435546875,9.5800006796875C19.6238435546875,9.6000846796875,19.680943554687502,9.6626466796875,19.6940435546875,9.7399966796875L19.908043554687502,11.7999966796875C19.9114435546875,11.8460666796875,19.876143554687502,11.8858766796875,19.8300435546875,11.8879966796875C19.8187435546875,11.8900666796875,19.8072435546875,11.8900666796875,19.7960435546875,11.8879966796875C18.1748435546875,11.4144866796875,16.509523554687497,11.1075666796875,14.826023554687499,10.9719966796875C14.0266135546875,10.9033166796875,13.2229535546875,11.0410466796875,12.4920235546875,11.3719966796875C12.0920235546875,11.5459966796875,12.0160235546875,11.8159966796875,12.2400235546875,12.1719966796875C12.424023554687501,12.4679966796875,12.758023554687501,12.6699966796875,13.2400235546875,12.7719966796875Q14.800023554687499,13.133996679687499,16.3480235546875,13.4639966796875C17.298073554687498,13.6682166796875,18.2072435546875,14.0298766796875,19.038043554687498,14.533996679687501Q20.6920435546875,15.533996679687501,20.3860435546875,17.0419966796875Q20.158043554687502,18.161996679687498,18.9480435546875,18.998046679687498C18.2825435546875,19.4577466796875,17.536043554687502,19.7875466796875,16.7480235546875,19.9700466796875C15.9756335546875,20.1338466796875,15.1894535546875,20.2242466796875,14.4000235546875,20.240046679687502C12.3928835546875,20.2960466796875,10.396963554687499,19.9223466796875,8.5460235546875,19.1440466796875C8.4180185546875,19.0972466796875,8.3243975546875,18.986046679687497,8.3000255546875,18.8520466796875L8.0420255546875,16.8779966796875C8.0361645546875,16.8330066796875,8.0688485546875,16.7921566796875,8.1140255546875,16.787996679687502C8.1258435546875,16.7850366796875,8.1382095546875,16.7850366796875,8.1500255546875,16.787996679687502Q10.9800235546875,17.6079966796875,11.8300235546875,17.7359966796875C12.917053554687499,17.9128966796875,14.0309835546875,17.8173766796875,15.072023554687501,17.4579966796875C15.290953554687501,17.3834266796875,15.4909535546875,17.261926679687498,15.6580235546875,17.101996679687502C15.7971235546875,16.9980066796875,15.8671835546875,16.825536679687502,15.8400235546875,16.653996679687502C15.7916635546875,16.5208466796875,15.6902935546875,16.413676679687498,15.5600235546875,16.3579966796875Z" fill="#FE8042" fill-opacity="1"/></g><g transform="matrix(0.6414496302604675,-0.7671651244163513,0.7671651244163513,0.6414496302604675,-10.432770033143242,24.97210202208771)"><rect x="21.4991455078125" y="23.647186279296875" width="3.4560000896453857" height="1.4760000705718994" rx="0.7380000352859497" fill="#F6854A" fill-opacity="1"/></g></g></svg>