<svg class="icon" viewBox="0 0 1171 1024" xmlns="http://www.w3.org/2000/svg" width="200" height="200">
  <style>
    .fill {
      fill: #a9a9a9;
    }
  </style>
  <defs>
    <filter id="fgFilter">
      <feColorMatrix type="saturate" values=".6" />
      <feComponentTransfer>
        <feFuncR type="linear" slope="1.4" />
        <feFuncG type="linear" slope="1.4" />
        <feFuncB type="linear" slope="1.4" />
      </feComponentTransfer>
    </filter>
    <filter id="blurFilter" x="0" y="0">
      <feGaussianBlur in="SourceGraphic" stdDeviation="20" />
    </filter>
    <path
      d="M0 211.843084m102.581171-33.625823l441.099037-144.591038q102.581171-33.625823 136.206994 68.955348l152.141477 464.132907q33.625823 102.581171-68.955348 136.206994l-441.099037 144.591038q-102.581171 33.625823-136.206994-68.955348l-152.141477-464.132906q-33.625823-102.581171 68.955348-136.206995Z"
      id="bg" />
    <path
      d="M239.036145 211.277108m154.216867 0l504.289157 0q154.216867 0 154.216867 154.216868l0 504.289157q0 154.216867-154.216867 154.216867l-504.289157 0q-154.216867 0-154.216867-154.216867l0-504.289157q0-154.216867 154.216867-154.216868Z"
      id="fg" />
    <path
      d="M627.80453 641.51441C617.356337 686.596627 576.999325 720.192771 528.808096 720.192771 472.680867 720.192771 427.180723 674.621687 427.180723 618.409639s45.500145-101.783133 101.627373-101.783133c48.191229 0 88.548241 33.596145 98.996434 78.678361h224.587566c6.197976 0 11.222361 5.032096 11.222362 11.240868v23.727807c0 6.208771-5.024386 11.240867-11.222362 11.240868h-7.482602v49.953927a4.990458 4.990458 0 0 1-4.987374 4.995085h-21.19865a4.990458 4.990458 0 0 1-4.987374-4.995085v-49.182843a0.771084 0.771084 0 0 0-0.771084-0.771084h-38.359904a0.771084 0.771084 0 0 0-0.771084 0.771084v49.182843a4.990458 4.990458 0 0 1-4.987373 4.995085h-21.198651a4.990458 4.990458 0 0 1-4.987373-4.995085v-49.182843a0.771084 0.771084 0 0 0-0.771085-0.771084h-114.085012zM586.790554 618.409639c0 32.072482-25.959325 58.071904-57.982458 58.071903-32.024675 0-57.984-25.999422-57.984-58.071903 0-32.072482 25.959325-58.071904 57.984-58.071904 32.023133 0 57.982458 25.999422 57.982458 58.071904z"
      id="symbol" />
  </defs>
  <clipPath id="clipPath">
    <use href="#fg" />
  </clipPath>
  <mask id="maskPath">
    <use href="#bg" fill="#FFF" />
    <use href="#fg" />
  </mask>
  <use href="#bg" class="fill" mask="url(#maskPath)" />
  <use href="#bg" class="fill" clip-path="url(#clipPath)" filter="url(#blurFilter)" />
  <use href="#fg" class="fill" filter="url(#fgFilter)" fill-opacity=".4" />
  <use href="#symbol" fill="#FFF" fill-opacity=".8" />
</svg>