<svg class="icon" viewBox="0 0 1024 1024" xmlns="http://www.w3.org/2000/svg" width="200" height="200">
  <style>
    .fill {
      fill: rgb(255 152 0)
    }
  </style>
  <defs>
    <filter id="fgFilter">
      <feColorMatrix type="saturate" values=".6" />
      <feComponentTransfer>
        <feFuncR type="linear" slope="1.4" />
        <feFuncG type="linear" slope="1.4" />
        <feFuncB type="linear" slope="1.4" />
      </feComponentTransfer>
    </filter>
    <filter id="blurFilter" x="0" y="0">
      <feGaussianBlur in="SourceGraphic" stdDeviation="20" />
    </filter>
    <path id="bg"
      d="M250.09 5.871c14.015-7.828 31.284-7.828 45.3 0l215.19 120.177c14.016 7.826 22.65 22.293 22.65 37.947V404.35c0 15.654-8.634 30.12-22.65 37.947L295.39 562.473c-14.016 7.828-31.285 7.828-45.3 0L34.9 442.296c-14.017-7.826-22.651-22.293-22.651-37.947V163.995c0-15.654 8.634-30.12 22.65-37.947L250.088 5.871z" />
    <path id="fg"
      d="M598.135 172.207a66.018 66.018 0 0 1 66.173 0l314.356 181.992c20.474 11.854 33.087 33.76 33.087 57.467V775.65c0 23.707-12.613 45.613-33.087 57.466L664.308 1015.11a66.021 66.021 0 0 1-66.173 0L283.778 833.117c-20.473-11.853-33.086-33.759-33.086-57.466V411.666c0-23.707 12.613-45.613 33.086-57.467l314.357-181.992z" />
    <path id="symbol"
      d="M635.531 436.874c-15.053 0-27.223 12.255-27.223 27.334v136.818l-126.096 73.982c-12.982 7.617-17.347 24.35-9.778 37.375 7.577 13.036 24.253 17.45 37.248 9.824l123.99-72.746 123.988 72.746c12.995 7.625 29.671 3.212 37.248-9.824 7.57-13.024 3.204-29.758-9.778-37.375L662.755 603.21v-139c0-15.08-12.17-27.335-27.224-27.335z" />
  </defs>
  <clipPath id="clipPath">
    <use href="#fg" />
  </clipPath>
  <mask id="maskPath">
    <use href="#bg" fill="#FFF" />
    <use href="#fg" />
  </mask>
  <use href="#bg" class="fill" mask="url(#maskPath)" />
  <use href="#bg" class="fill" clip-path="url(#clipPath)" filter="url(#blurFilter)" />
  <use href="#fg" class="fill" filter="url(#fgFilter)" fill-opacity=".4" />
  <use href="#symbol" fill="#FFF" fill-opacity=".8" />
</svg>