<?xml version="1.0" standalone="no"?><!DOCTYPE svg PUBLIC "-//W3C//DTD SVG 1.1//EN" "http://www.w3.org/Graphics/SVG/1.1/DTD/svg11.dtd"><svg t="1678607643882" class="icon" viewBox="0 0 1024 1024" version="1.1" xmlns="http://www.w3.org/2000/svg" p-id="26837" xmlns:xlink="http://www.w3.org/1999/xlink" width="200" height="200"><path d="M945.23 671.508c21.662 0 39.385-17.723 39.385-39.385v-512c0-21.661-17.723-39.385-39.384-39.385H78.769c-21.661 0-39.384 17.724-39.384 39.385v512c0 21.662 17.723 39.385 39.384 39.385h866.462z m-827.076-78.77v-433.23h787.692v433.23H118.154z m151.63-328.861c0 15.754-13.784 29.538-29.538 29.538h-19.692c-15.754 0-29.539-13.784-29.539-29.538v-19.692c0-15.754 13.785-29.539 29.539-29.539h19.692c15.754 0 29.539 13.785 29.539 29.539v19.692z m112.247-19.692c0-15.754-13.785-29.539-29.539-29.539H332.8c-15.754 0-29.538 13.785-29.538 29.539v19.692c0 15.754 13.784 29.538 29.538 29.538h19.692c15.754 0 29.539-13.784 29.539-29.538v-19.692z m226.461 19.692c0 15.754-13.784 29.538-29.538 29.538h-19.692c-15.754 0-29.539-13.784-29.539-29.538v-19.692c0-15.754 13.785-29.539 29.539-29.539h19.692c15.754 0 29.538 13.785 29.538 29.539v19.692z m-114.215 0c0 15.754-13.785 29.538-29.539 29.538h-19.692c-15.754 0-29.538-13.784-29.538-29.538v-19.692c0-15.754 13.784-29.539 29.538-29.539h19.692c15.754 0 29.539 13.785 29.539 29.539v19.692z m340.677-19.692c0-15.754-13.785-29.539-29.539-29.539h-19.692c-15.754 0-29.538 13.785-29.538 29.539v19.692c0 15.754 13.784 29.538 29.538 29.538h19.692c15.754 0 29.539-13.784 29.539-29.538v-19.692z m-114.216 0c0-15.754-13.784-29.539-29.538-29.539h-19.692c-15.754 0-29.539 13.785-29.539 29.539v19.692c0 15.754 13.785 29.538 29.539 29.538H691.2c15.754 0 29.538-13.784 29.538-29.538v-19.692zM269.785 382.03c0 15.754-13.785 29.538-29.539 29.538h-19.692c-15.754 0-29.539-13.784-29.539-29.538v-19.693c0-15.753 13.785-29.538 29.539-29.538h19.692c15.754 0 29.539 13.785 29.539 29.538v19.693z m112.246-19.693c0-15.753-13.785-29.538-29.539-29.538H332.8c-15.754 0-29.538 13.785-29.538 29.538v19.693c0 15.754 13.784 29.538 29.538 29.538h19.692c15.754 0 29.539-13.784 29.539-29.538v-19.693z m226.461 19.693c0 15.754-13.784 29.538-29.538 29.538h-19.692c-15.754 0-29.539-13.784-29.539-29.538v-19.693c0-15.753 13.785-29.538 29.539-29.538h19.692c15.754 0 29.538 13.785 29.538 29.538v19.693z m-114.215 0c0 15.754-13.785 29.538-29.539 29.538h-19.692c-15.754 0-29.538-13.784-29.538-29.538v-19.693c0-15.753 13.784-29.538 29.538-29.538h19.692c15.754 0 29.539 13.785 29.539 29.538v19.693z m340.677-19.693c0-15.753-13.785-29.538-29.539-29.538h-19.692c-15.754 0-29.538 13.785-29.538 29.538v19.693c0 15.754 13.784 29.538 29.538 29.538h19.692c15.754 0 29.539-13.784 29.539-29.538v-19.693z m-114.216 0c0-15.753-13.784-29.538-29.538-29.538h-19.692c-15.754 0-29.539 13.785-29.539 29.538v19.693c0 15.754 13.785 29.538 29.539 29.538H691.2c15.754 0 29.538-13.784 29.538-29.538v-19.693zM269.785 500.185c0 15.753-13.785 29.538-29.539 29.538h-19.692c-15.754 0-29.539-13.785-29.539-29.538v-19.693c0-15.754 13.785-29.538 29.539-29.538h19.692c15.754 0 29.539 13.784 29.539 29.538v19.693z m450.953-19.693c0-15.754-13.784-29.538-29.538-29.538H332.8c-15.754 0-29.538 13.784-29.538 29.538v19.693c0 15.753 13.784 29.538 29.538 29.538h358.4c15.754 0 29.538-13.785 29.538-29.538v-19.693z m114.216 0c0-15.754-13.785-29.538-29.539-29.538h-19.692c-15.754 0-29.538 13.784-29.538 29.538v19.693c0 15.753 13.784 29.538 29.538 29.538h19.692c15.754 0 29.539-13.785 29.539-29.538v-19.693zM356.43 732.554h311.138c9.846 0 15.754 11.815 7.877 19.692l-151.63 187.077c-5.908 5.908-17.724 5.908-21.662 0l-153.6-187.077c-5.908-7.877-1.97-19.692 7.877-19.692z" p-id="26838"></path></svg>