<?xml version="1.0" encoding="UTF-8"?>
<svg width="84px" height="84px" viewBox="0 0 84 84" version="1.1" xmlns="http://www.w3.org/2000/svg" xmlns:xlink="http://www.w3.org/1999/xlink">
    <title>ico_tips_wifi-error</title>
    <g id="BFS-首页" stroke="none" stroke-width="1" fill="none" fill-rule="evenodd">
        <g id="画板" transform="translate(-266.000000, -34.000000)">
            <g id="ico_tips_wifi-error" transform="translate(266.000000, 34.000000)">
                <rect id="矩形" x="0" y="0" width="84" height="84"></rect>
                <path d="M42.0182467,54.6876729 C44.1493358,54.6876729 45.4774057,53.3596029 45.5082911,51.1667432 C45.6318325,40.9436928 45.8171446,28.7439801 45.9098006,18.7988979 C45.9098006,16.6060381 44.2419918,15 41.9873614,15 C39.7636163,15 38.0958074,16.6060381 38.0958074,18.7988979 C38.1884635,28.7439801 38.4046609,40.9436928 38.5282023,51.1667432 C38.589973,53.3596029 39.8871577,54.6876729 42.0182467,54.6876729 Z M33.4630052,18.9224393 C22.375165,20.9299869 12.3374267,26.4893497 6.34566913,33.870948 C5.85150355,34.4577696 5.8823889,35.2607887 6.46921052,35.8784956 L10.7931593,40.2951005 C11.4417516,40.9436928 12.4609681,40.9436928 13.1095605,40.2333298 C18.7924646,34.2106868 25.8034387,30.3500182 33.6174319,28.8366362 L33.4630052,18.9224393 Z M50.5117176,18.9533246 L50.3572908,28.8366362 C58.171284,30.3191329 65.1513728,34.2415722 70.926933,40.2642151 C71.5755253,40.9128074 72.5329711,40.8819221 73.2124488,40.2024444 L77.5363976,35.8784956 C78.1541045,35.2607887 78.1232192,34.4577696 77.6290536,33.870948 C71.5755253,26.5511204 61.6613284,20.8373309 50.5117176,18.9533246 Z M50.2646348,37.4845337 L50.110208,47.7693548 C53.2296282,48.9738834 55.9475389,50.888775 58.0477426,53.1125201 C58.6963349,53.7919978 59.59201,53.7611124 60.3332584,53.0816348 L65.1513728,48.3561764 C65.7381944,47.7693548 65.7690798,46.9972211 65.2749142,46.4103995 C61.8775258,42.3335335 56.5034752,38.9670305 50.2646348,37.4845337 Z M33.7718586,37.4845337 C27.5330182,39.0288012 22.1898529,42.2717628 18.7615792,46.4103995 C18.2365283,46.9972211 18.2674137,47.7693548 18.8851206,48.3561764 L23.7341204,53.1434055 C24.4444834,53.8537685 25.4019292,53.7611124 26.1122922,52.9889787 C28.1507252,50.7652336 30.8686359,48.9429981 33.9262854,47.7384695 L33.7718586,37.4845337 Z M41.9873614,70.37743 C44.9523548,70.37743 47.2996413,68.0301435 47.2996413,65.1269207 C47.2996413,62.2236979 44.9523548,59.9072968 41.9873614,59.9072968 C39.0532532,59.9072968 36.6750814,62.2236979 36.6750814,65.1269207 C36.6750814,68.0301435 39.0532532,70.37743 41.9873614,70.37743 Z" id="wifi-error" fill="#DFE2E6" fill-rule="nonzero"></path>
            </g>
        </g>
    </g>
</svg>