<?xml version="1.0" standalone="no"?>
<!DOCTYPE svg PUBLIC "-//W3C//DTD SVG 1.1//EN" "http://www.w3.org/Graphics/SVG/1.1/DTD/svg11.dtd">
<svg t="1689575320602" class="icon" viewBox="0 0 1024 1024" version="1.1" xmlns="http://www.w3.org/2000/svg" p-id="3759"
    width="1em" height="1em">
    <path
        d="M887 840.4L673.4 624.8c41.8-52.4 67-118.8 67-191 0-169-137-306-306.2-306S128 265 128 434s137 306 306.2 306c73.2 0 140.2-25.6 193-68.4l212.2 214.2c6.4 6.8 15.2 10.2 23.8 10.2 8.2 0 16.4-3 22.6-9 13.2-12.6 13.6-33.4 1.2-46.6z m-452.8-166.2c-64.2 0-124.6-25-170-70.4-45.4-45.4-70.4-105.8-70.4-169.8 0-64.2 25-124.6 70.4-169.8 45.4-45.4 105.8-70.4 170-70.4s124.6 25 170 70.4c45.4 45.4 70.4 105.8 70.4 169.8 0 64.2-25 124.6-70.4 169.8-45.4 45.4-105.8 70.4-170 70.4z"
        p-id="3760" fill="currentColor"></path>
</svg>